<?xml version="1.0" encoding="utf-8"?>
<!-- Generator: Adobe Illustrator 19.0.0, SVG Export Plug-In . SVG Version: 6.00 Build 0)  -->
<svg version="1.1" id="Calque_2" xmlns="http://www.w3.org/2000/svg" xmlns:xlink="http://www.w3.org/1999/xlink" x="0px" y="0px"
	 viewBox="0 0 480 150" style="enable-background:new 0 0 480 150;" xml:space="preserve">
<style type="text/css">
	.st0{fill:#FCBD92;}
	.st1{fill:#FFFFFF;}
	.st2{fill:#F2B179;}
	.st3{opacity:0.2;}
	.st4{opacity:0.3;}
	.st5{fill:#DC895E;}
	.st6{font-family:'Deadknight';}
	.st7{font-size:53.8224px;}
</style>
<g id="XMLID_85_">
	<g id="button01_1_">
		<path id="XMLID_171_" class="st0" d="M445.3,30.2v51.3l-44.1,44.1H35.9V74.3l44.1-44.1H445.3 M445.3,24.7H80.1
			c-1.5,0-2.9,0.6-3.9,1.6L32.1,70.4c-1,1-1.6,2.4-1.6,3.9v51.3c0,3,2.5,5.5,5.5,5.5h365.2c1.5,0,2.9-0.6,3.9-1.6l44.1-44.1
			c1-1,1.6-2.4,1.6-3.9V30.2C450.8,27.1,448.3,24.7,445.3,24.7L445.3,24.7z"/>
		<path id="XMLID_142_" class="st1" d="M445.3,24.7c3,0,5.5,2.5,5.5,5.5v51.3c0,1.5-0.6,2.9-1.6,3.9l-44.1,44.1
			c-1,1-2.4,1.6-3.9,1.6H35.9c-3,0-5.5-2.5-5.5-5.5V74.3c0-1.5,0.6-2.9,1.6-3.9l44.1-44.1c1-1,2.4-1.6,3.9-1.6H445.3 M456.7,15.2
			H73.2c-2.7,0-5.2,1-7.1,3L17.4,66.8c-1.9,1.9-3,4.4-3,7.1v56.6c0,5.6,4.5,10.1,10.1,10.1h383.5c2.7,0,5.2-1,7.1-3l48.7-48.7
			c1.9-1.9,3-4.4,3-7.1V25.2C466.8,19.7,462.3,15.2,456.7,15.2L456.7,15.2z"/>
		<polygon id="XMLID_141_" class="st1" points="445.3,81.4 445.3,30.2 80.1,30.2 35.9,74.3 35.9,125.6 401.2,125.6 		"/>
		<path id="XMLID_138_" class="st2" d="M80.1,30.2L35.9,74.3v51.3h365.2l44.1-44.1V30.2H80.1z M55.9,121.2v-9.3H46V86.5l0.1,0.2
			l7.4-4.2v-7.3l34.9-35.4h13.1l6.4-5.3h317.6v9.3h9.9v25.5l-0.1-0.2l-7.4,4.2v7.3l-34.9,35.4h-13.1l-6.4,5.3H55.9z"/>
		<path id="XMLID_135_" class="st3" d="M421.7,38.1v5.6v3.7h3.7h6.3v19.4l-5.6,3.2l-1.8,1.1v2.1V79l-32.8,33.3h-11.5h-1.3l-1,0.8
			l-5.4,4.5H59.5v-5.6v-3.7h-3.7h-6.3V88.9l5.6-3.2l1.8-1.1v-2.1v-5.8l32.8-33.3h11.5h1.3l1-0.8l5.4-4.5H421.7 M425.4,34.5H107.8
			l-6.4,5.3H88.4L53.4,75.2v7.3L46,86.7L46,86.5v25.5h9.9v9.3h317.6l6.4-5.3h13.1l34.9-35.4v-7.3l7.4-4.2l0.1,0.2V43.8h-9.9V34.5
			L425.4,34.5z"/>
		<g id="XMLID_107_" class="st4">
			<polygon id="XMLID_108_" points="35.9,77.9 35.9,125.6 401.2,125.6 445.3,81.4 445.3,77.9 			"/>
		</g>
	</g>
	<text id="XMLID_106_" transform="matrix(1 0 0 1 82.8426 93.4099)" class="st5 st6 st7">Factory</text>
</g>
</svg>
