<?xml version="1.0" encoding="utf-8"?>
<!-- Generator: Adobe Illustrator 19.0.0, SVG Export Plug-In . SVG Version: 6.00 Build 0)  -->
<svg version="1.1" id="Calque_2" xmlns="http://www.w3.org/2000/svg" xmlns:xlink="http://www.w3.org/1999/xlink" x="0px" y="0px"
	 viewBox="0 0 65 59.7" style="enable-background:new 0 0 65 59.7;" xml:space="preserve">
<style type="text/css">
	.st0{fill:#FFFFFF;}
	.st1{fill:#FCBD92;}
	.st2{fill:#F2B179;}
	.st3{opacity:0.2;}
	.st4{opacity:0.3;}
	.st5{fill:#DC895E;}
</style>
<g id="XMLID_5461_">
	<g id="XMLID_5385_">
		<polygon id="XMLID_5469_" class="st0" points="6,43 6,17 17.2,5.8 47.4,5.8 58.5,17 58.5,43 47.4,54.2 17.2,54.2 		"/>
		<path id="XMLID_5446_" class="st1" d="M17.2,5.8h30.2L58.5,17v26L47.4,54.2H17.2L6,43V17L17.2,5.8 M17.2,3.1c-0.7,0-1.4,0.3-2,0.8
			L4,15.1c-0.5,0.5-0.8,1.2-0.8,2v26c0,0.7,0.3,1.4,0.8,2l11.2,11.2c0.5,0.5,1.2,0.8,2,0.8h30.2c0.7,0,1.4-0.3,2-0.8L60.5,45
			c0.5-0.5,0.8-1.2,0.8-2V17c0-0.7-0.3-1.4-0.8-2L49.3,3.9c-0.5-0.5-1.2-0.8-2-0.8H17.2L17.2,3.1z"/>
		<path id="XMLID_5439_" class="st2" d="M6,17v26l11.2,11.2h30.2L58.5,43V17L47.4,5.8H17.2L6,17z M10.3,38.2V35h2.1v-10h-2.1v-3.2
			v-2.7l9.4-9.4h7.6v2.1h10V9.8h7.6l9.4,9.4v2.7v3.2h-2.1v10h2.1v3.2v2.7l-9.4,9.4h-7.6v-2.1h-10v2.1h-7.6l-9.4-9.4V38.2z"/>
		<path id="XMLID_5426_" class="st3" d="M20.4,11.7h5v0.2v1.9h1.9h10h1.9v-1.9v-0.2h5l8.3,8.3v1.9v1.3h-0.2h-1.9v1.9v10v1.9h1.9h0.2
			v1.3v1.9l-8.3,8.3h-5v-0.2v-1.9h-1.9h-10h-1.9v1.9v0.2h-5l-8.3-8.3v-1.9v-1.3h0.2h1.9V35v-10v-1.9h-1.9h-0.2v-1.3V20L20.4,11.7
			 M19.7,9.8l-9.4,9.4v2.7v3.2h2.1v10h-2.1v3.2v2.7l9.4,9.4h7.6v-2.1h10v2.1h7.6l9.4-9.4v-2.7V35h-2.1v-10h2.1v-3.2v-2.7l-9.4-9.4
			h-7.6v2.1h-10V9.8H19.7L19.7,9.8z"/>
		<g id="XMLID_5387_" class="st4">
			<polygon id="XMLID_5393_" points="58.5,30 58.5,43 47.4,54.2 17.2,54.2 6,43 6,30 			"/>
		</g>
	</g>
	<polygon id="XMLID_5371_" class="st5" points="38.5,20 38.5,30 38.5,40.1 21.1,30 	"/>
</g>
</svg>
