<?xml version="1.0" encoding="utf-8"?>
<!-- Generator: Adobe Illustrator 19.0.0, SVG Export Plug-In . SVG Version: 6.00 Build 0)  -->
<svg version="1.1" id="Calque_2" xmlns="http://www.w3.org/2000/svg" xmlns:xlink="http://www.w3.org/1999/xlink" x="0px" y="0px"
	 viewBox="0 0 57.7 42.3" style="enable-background:new 0 0 57.7 42.3;" xml:space="preserve">
<style type="text/css">
	.st0{fill:#DC895E;}
</style>
<g id="XMLID_5495_">
	<g id="XMLID_411_">
		<path id="XMLID_414_" class="st0" d="M49.8,2.3c0-0.4,0-0.8,0.1-1.2c0.4,0,0.7,0,1.1,0C51,1.5,51,1.9,51,2.3c1.1,0,2.2,0,3.3,0
			c1.1,0,1.3,0.2,1.3,1.3c0,1.9,0,3.8,0,5.7c0,2.2-1.1,3.6-2.9,4.2c-0.4,0.1-0.9,0.2-1.3,0.2c-5.2,0-10.4,0-15.5,0
			c-0.3,0-0.5,0-0.8,0C35,14.9,35.1,16,34.9,17c-0.7,4.6-3.7,6.9-8.3,6.4c-1.1-0.1-2.2-0.3-3.4-0.5c-0.2,0.9-0.5,1.9-0.7,2.8
			c-1,4.1-2,8.2-3,12.2c-0.4,1.7-1.2,2.3-2.9,2.3c-3.8,0-7.6,0-11.4,0c-2.4,0-3.9-2.1-3.2-4.4C4,29,6.1,22.1,8.1,15.2
			c0.6-2-0.3-3.4-2.3-4C4.3,10.8,3,10,2.7,8.3C2.6,8,2.6,7.6,2.6,7.3c0.3-2.5,3-5,5.5-5c8.4,0,16.7,0,25.1,0c5.2,0,10.5,0,15.7,0
			C49.2,2.3,49.4,2.3,49.8,2.3z M53.9,4c-0.4,0-0.7,0-1.1,0C38.1,4,23.4,4,8.7,4C7.1,4,6,4.6,5.1,5.8C3.7,7.6,4.1,9,6.3,9.6
			c0.1,0,0.1,0,0.2,0.1c2.5,0.7,3.8,2.8,3.3,5.4c-0.2,0.8-0.4,1.7-0.7,2.6c0.4,0,0.6,0,0.9,0c3.5,0,7,0,10.6,0c0.7,0,1.6,0.2,2-0.1
			c0.4-0.3,0.4-1.2,0.6-1.9c0.6-2.5,1.9-3.5,4.5-3.5c7.9,0,15.8,0,23.7,0c1.3,0,2.4-0.7,2.4-2C54,8.1,53.9,6.1,53.9,4z M8.6,19.4
			C8.1,21.2,7.5,23,7,24.9c-1.1,3.8-2.3,7.7-3.4,11.5c-0.3,1.1,0.4,2.2,1.6,2.2c3.8,0,7.6,0,11.4,0c1,0,1.1-0.1,1.3-1
			c1-3.9,1.9-7.9,2.9-11.8c0.5-2.1,1-4.2,1.6-6.4C17.7,19.4,13.2,19.4,8.6,19.4z M33.3,13.8c-2.4,0.1-4.8-0.1-7.2,0.2
			c0.2,0.4,0.3,0.7,0.4,0.9c0.5,0.8,0.9,1.6,1.4,2.4c0.3,0.5,0.4,0.9-0.1,1.3c-0.5,0.4-1,0.1-1.3-0.4c-0.2-0.2-0.3-0.4-0.4-0.7
			c-0.4-0.6-0.8-1.3-1.2-2c-0.5,2-0.9,3.8-1.4,5.6c1.9,0.5,3.8,0.8,5.7,0.3c1.4-0.4,2.4-1.1,3.1-2.4C33.3,17.5,33.5,15.7,33.3,13.8z
			"/>
		<path id="XMLID_413_" class="st0" d="M39.1,8.3c-1.3,0-2.6,0-3.9,0c-0.6,0-1.1-0.1-1.1-0.8c0-0.5,0.4-0.8,1.1-0.8
			c2.6,0,5.2,0,7.8,0c0.6,0,1.1,0.2,1.1,0.8c0.1,0.5-0.4,0.8-1.1,0.9C41.8,8.3,40.4,8.3,39.1,8.3z"/>
		<path id="XMLID_412_" class="st0" d="M18.2,23.8c-0.6,0-1-0.5-1-1c0-0.6,0.5-1.1,1.1-1.1c0.6,0,1,0.5,1,1.1
			C19.2,23.3,18.8,23.8,18.2,23.8z"/>
	</g>
</g>
</svg>
