<?xml version="1.0" encoding="utf-8"?>
<!-- Generator: Adobe Illustrator 19.0.0, SVG Export Plug-In . SVG Version: 6.00 Build 0)  -->
<svg version="1.1" id="Calque_2" xmlns="http://www.w3.org/2000/svg" xmlns:xlink="http://www.w3.org/1999/xlink" x="0px" y="0px"
	 viewBox="0 0 57.7 40.3" style="enable-background:new 0 0 57.7 40.3;" xml:space="preserve">
<style type="text/css">
	.st0{fill:#DC895E;}
</style>
<path id="XMLID_5535_" class="st0" d="M53.9,24.3c-1.4-0.4-2.7-0.8-4.1-1.2c-0.5-0.1-0.8-0.5-1-1l-0.3-1.1c-0.6-2.1-1.1-4.2-1.7-6.3
	c-0.7-2.3-1.5-4.4-2.4-6.2c-1.2-2.2-3-3.7-5.4-4.4c-1.9-0.6-4-0.8-5.7-0.9c-1-0.1-2.1-0.1-3.2-0.1c-0.4,0-1.1,0-1.1,0v0l-1.2,0
	c-0.6,0-1.3,0-1.9,0.1c-2.1,0-4.1,0.3-6,0.8c-1.9,0.5-3.4,1.3-4.6,2.7c-0.8,0.8-1.4,1.9-2,3.3c-0.9,2.1-1.6,4.3-2.1,6.2
	c-0.5,1.7-0.9,3.5-1.3,5.2l-0.2,1c-0.1,0.2-0.2,0.7-0.8,0.7l-3.5,1c-0.7,0.2-1.4,0.4-2,0.8c-0.8,0.6-0.9,1.4-0.4,2.2
	C3.7,28,4.3,28.7,5,29.3c2.1,1.8,4.5,3.4,7.3,4.6c3.1,1.4,6.5,2.3,10.7,2.8c1.7,0.2,3.6,0.3,5.7,0.3c1.3,0,2.8,0,4.5-0.1
	c2.5-0.1,5.1-0.5,7.6-1c3.4-0.8,6.3-1.9,8.9-3.5c2-1.2,3.6-2.4,4.9-3.8c0.5-0.6,1-1.1,1.2-1.8c0.3-0.6,0.2-1.2-0.3-1.6
	C54.9,24.7,54.4,24.5,53.9,24.3z M13.3,16.1c0.6-2.1,1.4-4.2,2.3-6.4c1-2.1,2.6-3.5,4.9-4c1-0.2,2.1-0.4,3.3-0.5
	c1.3-0.1,2.9-0.3,4.4-0.3c1.9,0,3.9,0.1,5.9,0.2c1.5,0.1,2.9,0.3,4.1,0.8c2,0.7,3.5,2,4.5,4c0.8,1.8,1.4,3.7,2,5.5l0.1,0.2
	c0,0.1,0.1,0.2,0.1,0.3c0.1,0.3,0,0.6-0.3,0.8c-1.7,0.8-3.1,1.5-4.6,2c-2.2,0.8-4.2,1.3-6,1.6c-1.2,0.2-2.4,0.3-3.6,0.4
	c-0.2,0-0.3,0-0.5,0c-0.1,0-0.3,0-0.4,0l-0.4,0c-3.2,0-6.4-0.6-10-1.7c-1.5-0.5-3-1.1-4.4-1.7l-1.2-0.5
	C13.4,16.7,13.3,16.5,13.3,16.1z M11.3,25.1l1.4-6.6l2.4,1.1c2.9,1.3,5.9,2.1,8.9,2.7c1.5,0.2,3.3,0.5,5.1,0.5
	c2.2,0,5.1-0.2,7.9-0.9c2.6-0.7,5.2-1.6,7.5-2.7c0.2-0.1,0.4-0.2,0.6-0.3l0.7-0.3l0.8,3.5c0.2,0.7,0.3,1.4,0.5,2.1
	c0.1,0.2,0.1,0.4,0.1,0.7c0.1,0.5-0.1,0.8-0.6,0.9c-0.6,0.2-1.3,0.5-1.9,0.7c-1.8,0.6-3.9,1.3-6.1,1.9c-2.6,0.6-4.8,1-6.9,1
	c-0.8,0-1.6,0-2.4,0c-1,0-1.9,0-2.9-0.1c-1.6-0.2-3.2-0.4-4.4-0.6c-3.7-0.6-7.2-1.8-10.6-3c0,0-0.1,0-0.1,0l-0.3-0.1L11.3,25.1z
	 M53.6,26.8c-2,1.9-4.2,3.6-6.7,4.8c-2.2,1.2-4.8,2-7.8,2.7c-2.1,0.4-4.4,0.7-7,0.8c-0.9,0-1.9,0.1-2.8,0.1c-1.3,0-2.6,0-3.8-0.1
	c-4.5-0.3-8.5-1.1-12-2.6c-2.9-1.2-5.5-2.9-7.7-4.9c-0.2-0.2-0.4-0.4-0.6-0.6c-0.1-0.1-0.2-0.2-0.2-0.3l-0.1-0.1l-0.2-0.4L5.1,26
	l4.3-1.2l0,0.9c0,0.3,0,0.5,0,0.8c0,0.4,0,0.4,0.5,0.6c0.3,0.1,0.7,0.3,1,0.4c0.3,0.1,0.5,0.2,0.8,0.3c2.3,0.9,4.7,1.6,7.4,2.2
	c1.9,0.4,3.9,0.7,5.9,0.8c2,0.2,4.1,0.2,6.3,0.1c4.2-0.2,7.9-0.7,11.5-1.7c2.1-0.6,4-1.2,5.8-2.1c0.1-0.1,0.3-0.1,0.4-0.2
	c0.3-0.1,0.4-0.3,0.4-0.6c0-0.3,0-0.5,0-0.8l0-0.8l4,1.1c0.1,0,0.3,0.1,0.4,0.4C53.9,26.6,53.7,26.8,53.6,26.8z"/>
</svg>
