<?xml version="1.0" encoding="utf-8"?>
<!-- Generator: Adobe Illustrator 19.0.0, SVG Export Plug-In . SVG Version: 6.00 Build 0)  -->
<svg version="1.1" id="Calque_2" xmlns="http://www.w3.org/2000/svg" xmlns:xlink="http://www.w3.org/1999/xlink" x="0px" y="0px"
	 viewBox="0 0 45.5 45.3" style="enable-background:new 0 0 45.5 45.3;" xml:space="preserve">
<style type="text/css">
	.st0{fill:#DC895E;}
	.st1{fill:#FFFFFF;}
</style>
<g id="XMLID_404_">
	<path id="XMLID_5515_" class="st0" d="M18.2,21.4c-0.7-0.7-1.5-1.4-2.2-2.2c-0.3-0.3-0.7-0.7-1-1c-1-1-1-2.5,0-3.5
		c2.7-2.7,5.4-5.4,8.1-8.1c1.4-1.4,2.8-2.8,4.1-4.1c1-1,2.5-1,3.6,0c4.1,4.1,8.1,8.1,12.2,12.2c1,1,1,2.5,0,3.5
		C39,22.3,35,26.4,30.9,30.4c-1.1,1.1-2.6,1.1-3.7,0c-1-1-1.9-1.9-2.9-2.9c-0.1-0.1-0.2-0.1-0.3-0.3c0,0.2,0,0.3,0,0.5
		c0,4.5,0,8.9,0,13.4c0,1.7-1,2.7-2.7,2.7c-5.7,0-11.3,0-17,0c-0.7,0-1.3-0.2-1.8-0.7c-0.5-0.5-0.7-1.1-0.7-1.7c0-5.8,0-11.7,0-17.5
		c0-1.4,1.1-2.4,2.5-2.4c4.5,0,9,0,13.4,0c0.2,0,0.3,0,0.5,0C18.2,21.5,18.2,21.5,18.2,21.4z M24.1,24.7c0,0.2,0,0.4,0,0.6
		c0,0.4,0.1,0.6,0.4,0.9c1.2,1.2,2.4,2.4,3.6,3.6c0.7,0.7,1.5,0.7,2.2,0c4-4,8-8,12-12c0.8-0.8,0.8-1.5,0-2.3
		c-1.9-1.9-3.8-3.8-5.8-5.8c-2.1-2.1-4.2-4.2-6.3-6.3c-0.6-0.6-1.5-0.7-2.1,0c-4.1,4.1-8.2,8.2-12.3,12.3c-0.6,0.6-0.6,1.4,0,2.1
		c1.3,1.3,2.5,2.5,3.8,3.8c0.1,0.1,0.3,0.2,0.5,0.2c0.5,0,1.1,0,1.6,0c1,0,1.7,0.5,2.1,1.3C24.1,23.4,24.1,24.1,24.1,24.7z
		 M12.9,22.6c-2.8,0-5.6,0-8.5,0c-1.1,0-1.7,0.5-1.7,1.6c0,5.7,0,11.3,0,17c0,1,0.5,1.6,1.6,1.6c5.7,0,11.4,0,17.1,0
		c1,0,1.6-0.6,1.6-1.6c0-5.7,0-11.4,0-17.1c0-1-0.6-1.6-1.6-1.6C18.6,22.6,15.8,22.6,12.9,22.6z"/>
	<path id="XMLID_5509_" class="st1" d="M24.1,24.7c0-0.6,0-1.3-0.3-1.9c-0.5-0.9-1.2-1.3-2.1-1.3c-0.5,0-1.1,0-1.6,0
		c-0.2,0-0.3-0.1-0.5-0.2c-1.3-1.3-2.5-2.5-3.8-3.8c-0.6-0.6-0.6-1.4,0-2.1c4.1-4.1,8.2-8.2,12.3-12.3c0.6-0.6,1.4-0.6,2.1,0
		c2.1,2.1,4.2,4.2,6.3,6.3c1.9,1.9,3.8,3.8,5.8,5.8c0.8,0.8,0.8,1.5,0,2.3c-4,4-8,8-12,12c-0.7,0.7-1.5,0.7-2.2,0
		c-1.2-1.2-2.4-2.4-3.6-3.6c-0.3-0.3-0.4-0.5-0.4-0.9C24.1,25.1,24.1,24.9,24.1,24.7z M31.3,8.4c0-1.1-0.8-1.9-1.9-1.9
		c-1.1,0-1.9,0.9-1.9,1.9c0,1.1,0.9,1.9,1.9,1.9C30.5,10.3,31.3,9.5,31.3,8.4z M39.1,16.2c0-1.1-0.8-1.9-1.9-2c-1,0-1.9,0.8-1.9,1.9
		c0,1.1,0.8,2,1.9,2C38.2,18.1,39,17.3,39.1,16.2z M22.9,16.8c0-1.1-0.9-1.9-1.9-1.9c-1.1,0-1.9,0.9-1.9,1.9c0,1.1,0.8,1.9,1.9,1.9
		C22.1,18.8,22.9,17.9,22.9,16.8z M30.7,24.6c0-1.1-0.8-1.9-1.9-1.9c-1.1,0-1.9,0.9-1.9,1.9c0,1.1,0.9,1.9,1.9,1.9
		C29.8,26.5,30.7,25.7,30.7,24.6z"/>
	<path id="XMLID_5497_" class="st1" d="M12.9,22.6c2.8,0,5.7,0,8.5,0c1,0,1.6,0.6,1.6,1.6c0,5.7,0,11.4,0,17.1c0,1-0.6,1.6-1.6,1.6
		c-5.7,0-11.4,0-17.1,0c-1,0-1.6-0.5-1.6-1.6c0-5.7,0-11.3,0-17c0-1.1,0.5-1.6,1.7-1.6C7.3,22.6,10.1,22.6,12.9,22.6z M18.8,29.1
		c1.1,0,1.9-0.9,1.9-1.9c0-1-0.9-1.9-1.9-1.9c-1,0-1.9,0.9-1.9,1.9C16.9,28.2,17.8,29.1,18.8,29.1z M18.8,36.2
		c-1.1,0-1.9,0.9-1.9,1.9c0,1,0.9,1.9,1.9,1.9c1.1,0,1.9-0.9,1.9-1.9C20.8,37.1,19.9,36.2,18.8,36.2z M11,32.7c0,1,0.8,1.9,1.9,1.9
		c1.1,0,1.9-0.8,2-1.9c0-1.1-0.9-1.9-1.9-1.9C11.9,30.7,11,31.6,11,32.7z M8.9,27.2c0-1.1-0.9-1.9-1.9-1.9c-1.1,0-1.9,0.9-1.9,1.9
		c0,1.1,0.8,2,1.9,2C8,29.1,8.9,28.3,8.9,27.2z M8.9,38.2c0-1.1-0.9-1.9-1.9-1.9c-1.1,0-1.9,0.8-1.9,1.9c0,1.1,0.8,1.9,1.9,1.9
		C8,40.1,8.9,39.2,8.9,38.2z"/>
	<path id="XMLID_5493_" class="st0" d="M31.3,8.4c0,1-0.9,1.9-1.9,1.9c-1.1,0-1.9-0.9-1.9-1.9c0-1.1,0.9-1.9,1.9-1.9
		C30.5,6.5,31.3,7.4,31.3,8.4z"/>
	<path id="XMLID_5476_" class="st0" d="M39.1,16.2c0,1.1-0.9,1.9-2,1.9c-1.1,0-1.9-0.9-1.9-2c0-1,0.9-1.9,1.9-1.9
		C38.2,14.3,39.1,15.2,39.1,16.2z"/>
	<path id="XMLID_5473_" class="st0" d="M22.9,16.8c0,1.1-0.9,1.9-1.9,1.9c-1.1,0-1.9-0.9-1.9-1.9c0-1.1,0.8-1.9,1.9-1.9
		C22,14.9,22.9,15.8,22.9,16.8z"/>
	<path id="XMLID_5470_" class="st0" d="M30.7,24.6c0,1.1-0.8,1.9-1.9,1.9c-1,0-1.9-0.8-1.9-1.9c0-1.1,0.9-2,1.9-1.9
		C29.8,22.7,30.7,23.5,30.7,24.6z"/>
	<path id="XMLID_5467_" class="st0" d="M18.8,29.1c-1.1,0-1.9-0.9-1.9-1.9c0-1,0.9-1.9,1.9-1.9c1,0,1.9,0.9,1.9,1.9
		C20.8,28.3,19.9,29.1,18.8,29.1z"/>
	<path id="XMLID_5464_" class="st0" d="M18.8,36.2c1.1,0,1.9,0.9,1.9,1.9c0,1.1-0.9,1.9-1.9,1.9c-1,0-1.9-0.9-1.9-1.9
		C16.9,37.1,17.8,36.3,18.8,36.2z"/>
	<path id="XMLID_5441_" class="st0" d="M11,32.7c0-1.1,0.9-1.9,1.9-1.9c1.1,0,1.9,0.9,1.9,1.9c0,1.1-0.9,1.9-2,1.9
		C11.8,34.6,11,33.7,11,32.7z"/>
	<path id="XMLID_5438_" class="st0" d="M8.9,27.2c0,1-0.9,1.9-1.9,1.9c-1.1,0-1.9-0.9-1.9-2c0-1,0.9-1.9,1.9-1.9
		C8,25.3,8.9,26.1,8.9,27.2z"/>
	<path id="XMLID_5322_" class="st0" d="M8.9,38.2c0,1.1-0.9,1.9-1.9,1.9c-1.1,0-1.9-0.9-1.9-1.9c0-1.1,0.8-1.9,1.9-1.9
		C8,36.2,8.9,37.1,8.9,38.2z"/>
</g>
</svg>
