<?xml version="1.0" encoding="utf-8"?>
<!-- Generator: Adobe Illustrator 19.0.0, SVG Export Plug-In . SVG Version: 6.00 Build 0)  -->
<svg version="1.1" id="Calque_2" xmlns="http://www.w3.org/2000/svg" xmlns:xlink="http://www.w3.org/1999/xlink" x="0px" y="0px"
	 viewBox="0 0 36.7 36.7" style="enable-background:new 0 0 36.7 36.7;" xml:space="preserve">
<style type="text/css">
	.st0{fill:#DC895E;}
</style>
<g id="XMLID_5445_">
	<path id="XMLID_5451_" class="st0" d="M32.8,3.2C22.7,13.3,12.6,23.3,2.6,33.4c-0.8,0.8,0.5,2.1,1.3,1.3C13.9,24.6,24,14.5,34,4.5
		C34.9,3.6,33.6,2.4,32.8,3.2L32.8,3.2z"/>
	<path id="XMLID_5448_" class="st0" d="M7.5,27.1c-1.9-2.4-3.1-5.3-3.1-8.6c0-7.5,6.3-13.8,13.8-13.8c3.3,0,6.3,1.2,8.6,3.1L28,6.6
		c-2.6-2.2-6-3.6-9.8-3.6C9.7,2.9,2.6,10,2.6,18.5c0,3.7,1.4,7.1,3.6,9.8L7.5,27.1z"/>
	<path id="XMLID_5449_" class="st0" d="M29.3,10.6c1.5,2.2,2.5,5,2.6,7.9c-0.3,7.5-6,13.8-13.8,13.8c-2.9,0-5.7-1-7.9-2.6L9,31
		c2.6,1.9,5.8,3.1,9.2,3.1c8.7,0,15.2-7.1,15.6-15.6c-0.2-3.4-1.3-6.6-3.2-9.2L29.3,10.6z"/>
</g>
</svg>
