<?xml version="1.0" encoding="utf-8"?>
<!-- Generator: Adobe Illustrator 19.0.0, SVG Export Plug-In . SVG Version: 6.00 Build 0)  -->
<svg version="1.1" id="Calque_2" xmlns="http://www.w3.org/2000/svg" xmlns:xlink="http://www.w3.org/1999/xlink" x="0px" y="0px"
	 viewBox="0 0 166.5 82" style="enable-background:new 0 0 166.5 82;" xml:space="preserve">
<style type="text/css">
	.st0{fill:#FCBD92;}
	.st1{fill:#FFFFFF;}
	.st2{fill:#F2B179;}
	.st3{opacity:0.2;}
	.st4{opacity:0.3;}
	.st5{fill:#DC895E;}
	.st6{font-family:'Deadknight';}
	.st7{font-size:20.6992px;}
</style>
<g id="XMLID_5443_">
	<g id="XMLID_404_">
		<g id="button01">
			<path id="XMLID_425_" class="st0" d="M150.6,12.1v31.1L123.8,70h-108V38.9l26.8-26.8H150.6 M150.6,8.8h-108c-0.9,0-1.7,0.4-2.4,1
				L13.5,36.5c-0.6,0.6-1,1.5-1,2.4V70c0,1.8,1.5,3.3,3.3,3.3h108c0.9,0,1.7-0.4,2.4-1l26.8-26.8c0.6-0.6,1-1.5,1-2.4V12.1
				C153.9,10.3,152.4,8.8,150.6,8.8L150.6,8.8z"/>
			<path id="XMLID_422_" class="st1" d="M150.6,8.8c1.8,0,3.3,1.5,3.3,3.3v31.1c0,0.9-0.4,1.7-1,2.4l-26.8,26.8
				c-0.6,0.6-1.5,1-2.4,1h-108c-1.8,0-3.3-1.5-3.3-3.3V38.9c0-0.9,0.4-1.7,1-2.4L40.2,9.7c0.6-0.6,1.5-1,2.4-1H150.6 M157.5,3H38.4
				c-1.6,0-3.2,0.6-4.3,1.8L4.6,34.3c-1.2,1.2-1.8,2.7-1.8,4.3V73c0,3.4,2.7,6.1,6.1,6.1H128c1.6,0,3.2-0.6,4.3-1.8l29.5-29.5
				c1.2-1.2,1.8-2.7,1.8-4.3V9.1C163.6,5.7,160.9,3,157.5,3L157.5,3z"/>
			<polygon id="XMLID_421_" class="st1" points="150.6,43.2 150.6,12.1 42.6,12.1 15.8,38.9 15.8,70 123.8,70 			"/>
			<path id="XMLID_418_" class="st2" d="M42.6,12.1L15.8,38.9V70h108l26.8-26.8V12.1H42.6z M27.9,67.4v-5.6h-6V46.3l0.1,0.1l4.5-2.6
				v-4.4l21.2-21.5h7.9l3.9-3.2h79v5.6h6v15.5l-0.1-0.1l-4.5,2.6v4.4l-21.2,21.5h-7.9l-3.9,3.2H27.9z"/>
			<path id="XMLID_415_" class="st3" d="M136.3,16.9v3.4v2.2h2.2h3.8v11.8l-3.4,2l-1.1,0.6v1.3v3.5l-19.9,20.2h-7H110l-0.6,0.5
				l-3.3,2.7h-76v-3.4v-2.2h-2.2h-3.8V47.7l3.4-2l1.1-0.6v-1.3v-3.5l19.9-20.2h7h0.8l0.6-0.5l3.3-2.7H136.3 M138.5,14.7h-79
				l-3.9,3.2h-7.9L26.4,39.4v4.4L22,46.4l-0.1-0.1v15.5h6v5.6h79l3.9-3.2h7.9L140,42.7v-4.4l4.5-2.6l0.1,0.1V20.4h-6V14.7
				L138.5,14.7z"/>
			<g id="XMLID_413_" class="st4">
				<polygon id="XMLID_414_" points="15.8,41 15.8,70 123.8,70 150.6,43.2 150.6,41 				"/>
			</g>
		</g>
	</g>
	<g id="XMLID_5440_">
		<text id="XMLID_590_" transform="matrix(1 0 0 1 49.1511 48.767)" class="st5 st6 st7">Save</text>
	</g>
</g>
</svg>
