<?xml version="1.0" encoding="utf-8"?>
<svg viewBox="0 0 500 500" xmlns="http://www.w3.org/2000/svg">
  <g id="XMLID_85_" transform="matrix(1.074589014053, 0, 0, 1, 47.751781322695, 53.403049468994)" style="transform-origin: 300.593px 86.25px;">
    <g id="button01">
      <path id="XMLID_171_" class="st0" d="M257.6,30.5v51.3l-44.1,44.1H35.6V74.6l44.1-44.1H257.6 M257.6,25H79.7&#10;&#9;&#9;&#9;c-1.5,0-2.9,0.6-3.9,1.6L31.7,70.7c-1,1-1.6,2.4-1.6,3.9v51.3c0,3,2.5,5.5,5.5,5.5h177.9c1.5,0,2.9-0.6,3.9-1.6l44.1-44.1&#10;&#9;&#9;&#9;c1-1,1.6-2.4,1.6-3.9V30.5C263.1,27.5,260.6,25,257.6,25L257.6,25z" style="fill: rgb(252, 189, 146);"/>
      <path id="XMLID_142_" class="st1" d="M257.6,25c3,0,5.5,2.5,5.5,5.5v51.3c0,1.5-0.6,2.9-1.6,3.9l-44.1,44.1c-1,1-2.4,1.6-3.9,1.6&#10;&#9;&#9;&#9;H35.6c-3,0-5.5-2.5-5.5-5.5V74.6c0-1.5,0.6-2.9,1.6-3.9l44.1-44.1c1-1,2.4-1.6,3.9-1.6H257.6 M269,15.5H72.8c-2.7,0-5.2,1-7.1,3&#10;&#9;&#9;&#9;L17,67.1c-1.9,1.9-3,4.4-3,7.1v56.6c0,5.6,4.5,10.1,10.1,10.1h196.2c2.7,0,5.2-1,7.1-3l48.7-48.7c1.9-1.9,3-4.4,3-7.1V25.6&#10;&#9;&#9;&#9;C279.1,20,274.6,15.5,269,15.5L269,15.5z" style="fill: rgb(255, 255, 255);"/>
      <polygon id="XMLID_141_" class="st1" points="257.6,81.8 257.6,30.5 79.7,30.5 35.6,74.6 35.6,125.9 213.5,125.9 &#9;&#9;" style="fill: rgb(255, 255, 255);"/>
      <path id="XMLID_138_" class="st2" d="M79.7,30.5L35.6,74.6v51.3h177.9l44.1-44.1V30.5H79.7z M55.5,121.6v-9.3h-9.9V86.8l0.1,0.2&#10;&#9;&#9;&#9;l7.4-4.2v-7.3L88,40.1h13.1l6.4-5.3h130.2v9.3h9.9v25.5l-0.1-0.2l-7.4,4.2v7.3l-34.9,35.4h-13.1l-6.4,5.3H55.5z" style="fill: rgb(242, 177, 121);"/>
      <path id="XMLID_135_" class="st3" d="M234,38.5v5.6v3.7h3.7h6.3v19.4l-5.6,3.2l-1.8,1.1v2.1v5.8l-32.8,33.3h-11.5h-1.3l-1,0.8&#10;&#9;&#9;&#9;l-5.4,4.5H59.2v-5.6v-3.7h-3.7h-6.3V89.2l5.6-3.2l1.8-1.1v-2.1V77l32.8-33.3h11.5h1.3l1-0.8l5.4-4.5H234 M237.6,34.8H107.4&#10;&#9;&#9;&#9;l-6.4,5.3H88L53.1,75.5v7.3L45.7,87l-0.1-0.2v25.5h9.9v9.3h130.2l6.4-5.3h13.1l34.9-35.4v-7.3l7.4-4.2l0.1,0.2V44.1h-9.9V34.8&#10;&#9;&#9;&#9;L237.6,34.8z" style="opacity: 0.2;"/>
      <g id="XMLID_107_" class="st4" style="opacity: 0.3;">
        <polygon id="XMLID_108_" points="35.6,78.2 35.6,125.9 213.5,125.9 257.6,81.8 257.6,78.2 &#9;&#9;&#9;"/>
      </g>
    </g>
    <text id="XMLID_106_" class="st5 st6 st7" style="white-space: pre; fill: rgb(220, 137, 94); font-family: Deadknight; font-size: 53.8px; line-height: 86.1158px; perspective-origin: 45.4531px 0px;" x="78.589" y="93.745">Skip</text>
    <text style="white-space: pre; fill: rgb(51, 51, 51); font-family: Arial, sans-serif; font-size: 28px;" x="571.747" y="148.785"> </text>
    <text style="white-space: pre; fill: rgb(51, 51, 51); font-family: Arial, sans-serif; font-size: 28px;" transform="matrix(0.930588, 0, 0, 1, 173.222244, 180.00528)"> </text>
  </g>
</svg>