<?xml version="1.0" encoding="utf-8"?>
<!-- Generator: Adobe Illustrator 19.0.0, SVG Export Plug-In . SVG Version: 6.00 Build 0)  -->
<svg version="1.1" id="Calque_2" xmlns="http://www.w3.org/2000/svg" xmlns:xlink="http://www.w3.org/1999/xlink" x="0px" y="0px"
	 viewBox="0 0 289.5 150" style="enable-background:new 0 0 289.5 150;" xml:space="preserve">
<style type="text/css">
	.st0{fill:#FCBD92;}
	.st1{fill:#FFFFFF;}
	.st2{fill:#F2B179;}
	.st3{opacity:0.2;}
	.st4{opacity:0.3;}
	.st5{fill:#DC895E;}
	.st6{font-family:'Deadknight';}
	.st7{font-size:53.8224px;}
</style>
<g id="XMLID_85_">
	<g id="button01">
		<path id="XMLID_171_" class="st0" d="M257.6,30.5v51.3l-44.1,44.1H35.6V74.6l44.1-44.1H257.6 M257.6,25H79.7
			c-1.5,0-2.9,0.6-3.9,1.6L31.7,70.7c-1,1-1.6,2.4-1.6,3.9v51.3c0,3,2.5,5.5,5.5,5.5h177.9c1.5,0,2.9-0.6,3.9-1.6l44.1-44.1
			c1-1,1.6-2.4,1.6-3.9V30.5C263.1,27.5,260.6,25,257.6,25L257.6,25z"/>
		<path id="XMLID_142_" class="st1" d="M257.6,25c3,0,5.5,2.5,5.5,5.5v51.3c0,1.5-0.6,2.9-1.6,3.9l-44.1,44.1c-1,1-2.4,1.6-3.9,1.6
			H35.6c-3,0-5.5-2.5-5.5-5.5V74.6c0-1.5,0.6-2.9,1.6-3.9l44.1-44.1c1-1,2.4-1.6,3.9-1.6H257.6 M269,15.5H72.8c-2.7,0-5.2,1-7.1,3
			L17,67.1c-1.9,1.9-3,4.4-3,7.1v56.6c0,5.6,4.5,10.1,10.1,10.1h196.2c2.7,0,5.2-1,7.1-3l48.7-48.7c1.9-1.9,3-4.4,3-7.1V25.6
			C279.1,20,274.6,15.5,269,15.5L269,15.5z"/>
		<polygon id="XMLID_141_" class="st1" points="257.6,81.8 257.6,30.5 79.7,30.5 35.6,74.6 35.6,125.9 213.5,125.9 		"/>
		<path id="XMLID_138_" class="st2" d="M79.7,30.5L35.6,74.6v51.3h177.9l44.1-44.1V30.5H79.7z M55.5,121.6v-9.3h-9.9V86.8l0.1,0.2
			l7.4-4.2v-7.3L88,40.1h13.1l6.4-5.3h130.2v9.3h9.9v25.5l-0.1-0.2l-7.4,4.2v7.3l-34.9,35.4h-13.1l-6.4,5.3H55.5z"/>
		<path id="XMLID_135_" class="st3" d="M234,38.5v5.6v3.7h3.7h6.3v19.4l-5.6,3.2l-1.8,1.1v2.1v5.8l-32.8,33.3h-11.5h-1.3l-1,0.8
			l-5.4,4.5H59.2v-5.6v-3.7h-3.7h-6.3V89.2l5.6-3.2l1.8-1.1v-2.1V77l32.8-33.3h11.5h1.3l1-0.8l5.4-4.5H234 M237.6,34.8H107.4
			l-6.4,5.3H88L53.1,75.5v7.3L45.7,87l-0.1-0.2v25.5h9.9v9.3h130.2l6.4-5.3h13.1l34.9-35.4v-7.3l7.4-4.2l0.1,0.2V44.1h-9.9V34.8
			L237.6,34.8z"/>
		<g id="XMLID_107_" class="st4">
			<polygon id="XMLID_108_" points="35.6,78.2 35.6,125.9 213.5,125.9 257.6,81.8 257.6,78.2 			"/>
		</g>
	</g>
	<text id="XMLID_106_" transform="matrix(1 0 0 1 82.485 93.7448)" class="st5 st6 st7">Buy</text>
</g>
</svg>
