<?xml version="1.0" encoding="utf-8"?>
<!-- Generator: Adobe Illustrator 19.0.0, SVG Export Plug-In . SVG Version: 6.00 Build 0)  -->
<svg version="1.1" id="Calque_2" xmlns="http://www.w3.org/2000/svg" xmlns:xlink="http://www.w3.org/1999/xlink" x="0px" y="0px"
	 viewBox="0 0 65 59.7" style="enable-background:new 0 0 65 59.7;" xml:space="preserve">
<style type="text/css">
	.st0{fill:#FFFFFF;}
	.st1{fill:#FCBD92;}
	.st2{fill:#F2B179;}
	.st3{opacity:0.2;}
	.st4{opacity:0.3;}
	.st5{fill:#DC895E;}
</style>
<g id="XMLID_5541_">
	<g id="XMLID_5472_">
		<polygon id="XMLID_5531_" class="st0" points="59,43.3 59,17.3 47.8,6.1 17.6,6.1 6.4,17.3 6.4,43.3 17.6,54.5 47.8,54.5 		"/>
		<path id="XMLID_5523_" class="st1" d="M47.8,6.1L59,17.3v26L47.8,54.5H17.6L6.4,43.3v-26L17.6,6.1H47.8 M47.8,3.3H17.6
			c-0.7,0-1.4,0.3-2,0.8L4.5,15.3c-0.5,0.5-0.8,1.2-0.8,2v26c0,0.7,0.3,1.4,0.8,2l11.2,11.2c0.5,0.5,1.2,0.8,2,0.8h30.2
			c0.7,0,1.4-0.3,2-0.8L61,45.2c0.5-0.5,0.8-1.2,0.8-2v-26c0-0.7-0.3-1.4-0.8-2L49.8,4.1C49.2,3.6,48.5,3.3,47.8,3.3L47.8,3.3z"/>
		<path id="XMLID_5516_" class="st2" d="M47.8,6.1H17.6L6.4,17.3v26l11.2,11.2h30.2L59,43.3v-26L47.8,6.1z M54.7,41.1l-9.4,9.4h-7.6
			v-2.1h-10v2.1h-7.6l-9.4-9.4v-2.7v-3.2h2.1v-10h-2.1v-3.2v-2.7l9.4-9.4h7.6v2.1h10v-2.1h7.6l9.4,9.4v2.7v3.2h-2.1v10h2.1v3.2V41.1
			z"/>
		<path id="XMLID_5477_" class="st3" d="M44.6,11.9l8.3,8.3v1.9v1.3h-0.2h-1.9v1.9v10v1.9h1.9h0.2v1.3v1.9l-8.3,8.3h-5v-0.2v-1.9
			h-1.9h-10h-1.9v1.9v0.2h-5l-8.3-8.3v-1.9v-1.3h0.2h1.9v-1.9v-10v-1.9h-1.9h-0.2v-1.3v-1.9l8.3-8.3h5v0.2V14h1.9h10h1.9v-1.9v-0.2
			H44.6 M45.3,10.1h-7.6v2.1h-10v-2.1h-7.6l-9.4,9.4v2.7v3.2h2.1v10h-2.1v3.2v2.7l9.4,9.4h7.6v-2.1h10v2.1h7.6l9.4-9.4v-2.7v-3.2
			h-2.1v-10h2.1v-3.2v-2.7L45.3,10.1L45.3,10.1z"/>
		<g id="XMLID_5474_" class="st4">
			<polygon id="XMLID_5475_" points="6.4,30.3 6.4,43.3 17.6,54.5 47.8,54.5 59,43.3 59,30.3 			"/>
		</g>
	</g>
	<polygon id="XMLID_5471_" class="st5" points="26.5,20.2 26.5,30.3 26.5,40.3 43.9,30.3 	"/>
</g>
</svg>
