<?xml version="1.0" encoding="utf-8"?>
<!-- Generator: Adobe Illustrator 19.0.0, SVG Export Plug-In . SVG Version: 6.00 Build 0)  -->
<svg version="1.1" id="Calque_2" xmlns="http://www.w3.org/2000/svg" xmlns:xlink="http://www.w3.org/1999/xlink" x="0px" y="0px"
	 viewBox="0 0 57.7 48.5" style="enable-background:new 0 0 57.7 48.5;" xml:space="preserve">
<style type="text/css">
	.st0{fill:#DC895E;}
</style>
<g id="XMLID_5494_">
	<g id="XMLID_444_">
		<path id="XMLID_450_" class="st0" d="M31.7,8c6.9,0,13.8,0,20.8,0c2.8,0,3.6,0.8,3.6,3.6c0,10.3,0,20.6,0,30.9
			c0,2.7-0.9,3.6-3.7,3.6c-14,0-27.9,0-41.9,0c-2.6,0-3.5-0.9-3.5-3.4c0-10.4,0-20.8,0-31.2C7,8.8,7.8,8,10.6,8
			C17.6,8,24.7,8,31.7,8C31.7,8,31.7,8,31.7,8z M31.5,9.7c-6.9,0-13.7,0-20.6,0c-1.7,0-2.2,0.6-2.2,2.2c0.1,10.1,0.1,20.2,0,30.3
			c0,1.6,0.5,2.2,2.2,2.2c13.7-0.1,27.4-0.1,41.2,0c1.8,0,2.3-0.6,2.3-2.3c-0.1-10-0.1-20.1,0-30.1c0-1.7-0.5-2.3-2.3-2.3
			C45.2,9.8,38.4,9.7,31.5,9.7z"/>
		<path id="XMLID_449_" class="st0" d="M26.3,2.5c7,0,14,0,21,0c1.6,0,2.8,0.4,3.2,2.1C50.6,5,50.2,5.5,50,6
			c-0.4-0.3-0.7-0.5-1.1-0.8c-0.6-0.3-1.2-0.9-1.8-0.9c-14-0.1-27.9,0-41.9-0.1c-1.4,0-1.9,0.6-1.9,1.9c0,10.3,0,20.6,0.1,30.9
			c0,0.6,0.7,1.3,1.1,1.9c0.2,0.4,0.4,0.8,0.6,1.2c-0.4,0.1-0.9,0.5-1.3,0.4c-1.7-0.4-2.1-1.6-2.1-3.1c0-8.5,0-17,0-25.5
			c0-1.9,0-3.8,0-5.7c0-2.8,0.9-3.6,3.6-3.6C12.2,2.5,19.3,2.5,26.3,2.5C26.3,2.5,26.3,2.5,26.3,2.5z"/>
		<path id="XMLID_448_" class="st0" d="M28.1,31.7c3.5-3.7,6.8-7.1,10-10.5c1.9-2,3.3-2,5.1,0c2.8,2.9,5.6,5.9,8.4,8.9
			c0.4,0.4,0.4,1.3,0.6,1.9c-0.6-0.2-1.4-0.3-1.9-0.7c-2.8-2.8-5.6-5.7-8.3-8.7c-0.9-1-1.6-1.2-2.6-0.1c-3.2,3.5-6.4,6.8-9.8,10.4
			c0.4,0.5,0.9,0.9,1.2,1.4c0.3,0.6,0.4,1.3,0.6,1.9c-0.6-0.2-1.4-0.3-1.9-0.7c-1.6-1.4-3.2-2.9-4.6-4.6c-1.2-1.4-2-1.2-3.2,0.1
			c-2.9,3-5.9,6-8.9,8.9c-0.4,0.4-1.2,0.5-1.9,0.7c0.2-0.6,0.3-1.4,0.7-1.9c3.1-3.2,6.2-6.3,9.4-9.5c1.7-1.6,3.1-1.6,4.8,0.1
			C26.5,29.9,27.2,30.7,28.1,31.7z"/>
		<path id="XMLID_445_" class="st0" d="M17.9,24.3c-3,0-5.4-2.4-5.5-5.4c0-3,2.4-5.4,5.4-5.4c3,0,5.4,2.4,5.5,5.4
			C23.4,21.8,20.9,24.3,17.9,24.3z M21.5,18.8c0-2-1.6-3.6-3.6-3.6c-2,0-3.6,1.6-3.7,3.6c0,2.1,1.7,3.8,3.7,3.7
			C19.9,22.5,21.5,20.8,21.5,18.8z"/>
	</g>
</g>
</svg>
