<?xml version="1.0" encoding="utf-8"?>
<!-- Generator: Adobe Illustrator 19.0.0, SVG Export Plug-In . SVG Version: 6.00 Build 0)  -->
<svg version="1.1" id="Calque_2" xmlns="http://www.w3.org/2000/svg" xmlns:xlink="http://www.w3.org/1999/xlink" x="0px" y="0px"
	 viewBox="0 0 57.7 58.7" style="enable-background:new 0 0 57.7 58.7;" xml:space="preserve">
<style type="text/css">
	.st0{fill:#DC895E;}
</style>
<path id="XMLID_5572_" class="st0" d="M43.1,39.9c0,0.2,0,0.5,0,0.7c0,3.3,0,6.6,0,9.9c0,0.9-0.3,1.2-1.2,1.2c-8.7,0-17.5,0-26.2,0
	c-0.9,0-1.1-0.3-1.1-1.1c0-3.3,0-6.6,0-9.9c0-0.2,0-0.5,0-0.7c0,0-0.1,0-0.1,0c-0.1,1-0.3,1.9-0.4,2.9c-0.6,4.3-1.2,8.5-1.7,12.8
	c-0.1,0.6-0.4,0.9-1.1,0.9c-2.8-0.1-5.7-0.2-8.5-0.4c-0.7,0-1-0.5-0.9-1.2C3,47.2,4.2,39.5,5.3,31.8c1-6.6,2-13.2,3-19.7
	c0.1-0.5,0.3-0.9,0.6-1.3c1.5-2.2,3.7-3.6,6.1-4.6c1.6-0.6,3.3-1,5-1.5c0.4-0.1,0.8-0.3,1.1-0.6c0.6-0.5,1.2-1.1,1.8-1.7
	c0.2-0.2,0.6-0.3,0.9-0.4c3.5,0,6.9,0,10.4,0c0.3,0,0.6,0.2,0.9,0.4c0.1,0,0.2,0.2,0.2,0.2c1.1,1.2,2.3,2,4,2.4
	c2.8,0.6,5.5,1.7,7.7,3.6c0.4,0.3,0.7,0.7,1.1,1c1.2,1.1,1.5,2.5,1.7,4c1.3,8.7,2.6,17.3,3.9,26c0.8,5.1,1.5,10.1,2.3,15.2
	c0.1,0.9-0.2,1.2-1,1.3c-2.7,0.1-5.5,0.3-8.2,0.4c-0.8,0-1.1-0.2-1.2-1c-0.7-5.1-1.4-10.2-2.1-15.3C43.2,40.1,43.2,40,43.1,39.9
	C43.1,39.9,43.1,39.9,43.1,39.9z M20.4,6.3C18.1,6.8,16,7.5,14,8.6c-1.4,0.8-2.7,1.7-3.7,3.1c-0.2,0.2-0.3,0.5-0.4,0.8
	C9,18.6,8.1,24.8,7.2,30.9c-1,6.7-2,13.4-3,20.1c-0.2,1.1-0.3,2.2-0.5,3.4c2.3,0.1,4.5,0.2,6.7,0.3c0.1,0,0.4-0.3,0.4-0.5
	c0.4-2.7,0.8-5.4,1.1-8.2c0.7-5,1.4-10.1,2.1-15.1c0.2-1.6,0.4-3.2,0.7-4.8c0.1-0.3,0.4-0.6,0.7-0.8c0.2-0.1,0.6,0.1,0.8,0.3
	c0.2,0.2,0.2,0.6,0.2,0.9c0,3,0,5.9,0,8.9c0,0.5,0.1,0.9,0.5,1.2c1.4,1.2,2.8,2.4,4.2,3.6c0.3,0.3,0.6,0.6,0.4,1.1
	c-0.2,0.6-0.9,0.8-1.5,0.3c-1-0.9-2-1.7-3.1-2.6c-0.2-0.1-0.4-0.3-0.6-0.4c0,3.9,0,7.6,0,11.4c4.3,0,8.6,0,12.9,0
	c0.1-1.1,0.3-2.1,0.4-3.2c0.7-5.4,1.4-10.8,2.1-16.2c0.1-0.5-0.1-0.8-0.4-1c-5.2-4.3-10.5-8.5-15.7-12.8c-0.9-0.7-0.9-0.9-0.3-1.9
	c1.1-1.8,2.2-3.6,3.3-5.5C19.2,8.4,19.8,7.4,20.4,6.3z M31,49.9c3.5,0,6.9,0,10.3,0c0-3.7,0-7.3,0-11.1c-1.1,0.9-2.1,1.8-3.1,2.6
	c-0.6,0.5-1.1,0.5-1.4,0c-0.3-0.4-0.2-0.9,0.3-1.4c1.2-1,2.4-2.1,3.7-3.1c0.4-0.3,0.6-0.7,0.6-1.3c0-3.1,0-6.2,0-9.3
	c0-0.7,0.3-1.1,0.8-1.1c0.6,0,0.9,0.4,0.9,1c0.3,2.6,0.7,5.3,1.1,7.9c0.7,5.4,1.5,10.8,2.2,16.3c0.2,1.4,0.4,2.8,0.6,4.3
	c2.3-0.1,4.6-0.2,7-0.3c0-0.3,0-0.5-0.1-0.7c-0.7-4.8-1.5-9.7-2.2-14.5C50.4,30.7,49.2,22.4,48,14c-0.2-1.4-0.6-2.6-1.6-3.5
	c-2.7-2.4-5.9-3.4-9.4-4.2C37,6.6,37.1,6.8,37.2,7c0.8,1.6,1.7,3.2,2.5,4.8c0.3,0.6,0.3,1,0.1,1.6c-2,5.1-3.9,10.2-5.9,15.4
	c-0.3,0.7-0.4,1.5-0.5,2.2c-0.6,4.6-1.2,9.3-1.8,13.9C31.5,46.6,31.2,48.2,31,49.9z M30.7,26.7c0,0,0.1-0.1,0.1-0.1
	c-2.5-7.2-5-14.4-7.5-21.7c-2.2,3.6-4.3,7-6.4,10.5C21.6,19.2,26.1,23,30.7,26.7z M34.5,5.5c-0.1,0.3-0.1,0.4-0.1,0.5
	c-0.9,4-1.8,8-2.6,12c-0.3,1.2-0.8,2.5-0.7,3.7c0.1,1.2,0.8,2.4,1.2,3.6c0.1,0.3,0.2,0.7,0.3,1c0.1,0.2,0.1,0.3,0.2,0.5
	c0.1-0.1,0.1-0.1,0.1-0.1c1.7-4.6,3.5-9.1,5.2-13.7c0.1-0.2,0.1-0.4,0-0.6C37,10.2,35.8,7.9,34.5,5.5z M33.1,3.9c-2.8,0-5.5,0-8.3,0
	C25.1,5,25.5,6,25.9,7c0,0.1,0.3,0.3,0.4,0.3c1.9,0,3.7,0,5.6,0c0.2,0,0.4-0.2,0.5-0.4C32.6,5.9,32.8,4.9,33.1,3.9z M31.9,9.1
	c-1.8,0-3.5,0-5.3,0c1.1,3.1,2.1,6.2,3.2,9.2c0,0,0.1,0,0.1,0C30.6,15.2,31.2,12.2,31.9,9.1z"/>
</svg>
