<?xml version="1.0" encoding="utf-8"?>
<!-- Generator: Adobe Illustrator 19.0.0, SVG Export Plug-In . SVG Version: 6.00 Build 0)  -->
<svg version="1.1" id="Calque_1" xmlns="http://www.w3.org/2000/svg" xmlns:xlink="http://www.w3.org/1999/xlink" x="0px" y="0px"
	 viewBox="0 0 62.7 59.3" style="enable-background:new 0 0 62.7 59.3;" xml:space="preserve">
<style type="text/css">
	.st0{fill:#DC895E;}
</style>
<g id="XMLID_9_">
	<path id="XMLID_30_" class="st0" d="M53,50.2L36.1,25.6l-1.9-2.8L22.1,5.3l-1-1.5H6.3l3.6,5.3L26,32.4l1.9,2.8L40.8,54l1,1.5h14.9
		L53,50.2z M43.6,52.1L30.2,32.6l-1.9-2.8L12.7,7.2h6.7L32,25.5l1.9,2.8l16.4,23.8H43.6z"/>
	<polygon id="XMLID_29_" class="st0" points="28.2,29.8 30.2,32.6 27.9,35.2 10.5,55.4 6.2,55.4 26,32.4 	"/>
	<polygon id="XMLID_28_" class="st0" points="54.9,3.8 36.1,25.6 33.9,28.2 32,25.5 34.2,22.8 46.9,8 50.6,3.8 	"/>
</g>
</svg>
