<?xml version="1.0" encoding="utf-8"?>
<!-- Generator: Adobe Illustrator 19.0.0, SVG Export Plug-In . SVG Version: 6.00 Build 0)  -->
<svg version="1.1" id="Calque_2" xmlns="http://www.w3.org/2000/svg" xmlns:xlink="http://www.w3.org/1999/xlink" x="0px" y="0px"
	 viewBox="0 0 364.5 310.5" style="enable-background:new 0 0 364.5 310.5;" xml:space="preserve">
<style type="text/css">
	.st0{fill:#F5C5B3;}
	.st1{fill:#050505;}
	.st2{fill:#2E0A0F;}
	.st3{fill:#180B0B;}
	.st4{fill:#F3C4B2;}
	.st5{fill:#030202;}
	.st6{fill:#651120;}
	.st7{fill:#C1BEBD;}
	.st8{fill:#949392;}
	.st9{fill:#B1ACAB;}
	.st10{fill:#525252;}
	.st11{fill:#060606;}
	.st12{fill:#C82541;}
	.st13{fill:#100305;}
</style>
<g id="XMLID_12263_">
	<path id="XMLID_12364_" class="st0" d="M33,195.4c1.5,0.2,3.1,0.3,4.6,0.5c3.2,0.3,6.4,0.6,9.5,0.8c8.8,1.4,16.1-1.8,22.3-7.8
		c6.8-4.2,13.7-8.5,20.5-12.7c0.7-0.7,1.4-1.4,2.1-2.1c0.6-0.1,1.1-0.2,1.7-0.4c0.7-0.5,1.5-1,2.2-1.5c0.3-0.2,0.6-0.4,0.9-0.6
		c1.2,0.1,2.3,0.2,3.5,0.4c-3.1,5.6-6.3,10.7-8.6,16.1c-2.9,6.7-0.1,15.2,5.6,16.3c6.6,1.3,13.5,1.3,20.3,1.5c0.8,0,1.8-1.9,2.6-3
		c-0.4-0.4-0.9-0.7-1.3-1.1c1.4-0.4,2.8-0.9,4.2-1.3c0.5-0.5,0.9-1,1.4-1.5c-0.4-0.8-0.8-1.6-1.2-2.4c-2.9-0.3-5.8-0.6-8.7-1
		c-3.6-0.5-4.6,1.4-4.2,4.5c-4.9,2.5-10,1.2-13.3-2.1c-3.5-3.3-1.6-8.1,0.7-12c1-1.6,2-3.1,3.1-4.7c1.6-2.5,3.3-5,4.9-7.4
		c0.2-0.5,0.4-1.1,0.5-1.6c0.1-1.8,0.3-3.5,0.4-5.3l0.3,0l0-0.3c1.5,0,3.1,0,4.6,0c4.4,1.4,9.5,1.9,13.1,4.5
		c6.9,4.9,13.1,11,19.5,16.6c5.4,3,10.8,6,16.2,9c1.5,0.8,3.1,1.7,4.6,2.5c0.4,0.3,0.8,0.5,1.3,0.8c0.4,0.2,0.7,0.4,1.1,0.6
		c0.5,0.3,1.1,0.6,1.6,0.9c0.6,0.4,1.2,0.8,1.8,1.2c0.1,0.4,0.4,0.6,0.9,0.6c4.3,1.6,8.5,3.2,12.8,4.8c11.4,0.3,22.8,0.6,34.1,0.9
		c1.9-0.2,3.7-0.4,5.6-0.7c26.1-4.4,43-19.5,51.5-44.3c0.4-0.4,0.8-0.9,1.1-1.3l0,0c0.5-0.7,1-1.4,1.5-2.1l-0.1,0.1
		c0.6-1.6,1.2-3.2,1.7-4.8c0.5-1.6,0.9-3.1,1.4-4.7c1.9-0.7,3.8-1.5,5.7-2.2c0.7-0.3,1.5-0.5,2.2-0.8c0.9-0.5,1.8-0.9,2.6-1.4
		c0.6-0.4,1.3-0.7,1.9-1.1c0.8-0.4,1.6-0.9,2.4-1.3c0.4-0.3,0.8-0.5,1.2-0.8c1-0.6,2.1-1.1,3.1-1.7l0.1-0.1c0.5-0.3,0.9-0.6,1.4-0.8
		l-0.1,0.1c0.6-0.4,1.1-0.7,1.7-1.1c1.7-0.8,3.4-1.6,5-2.4c1.3-0.7,2.6-1.4,4-2.1c0.5-0.4,1.1-0.7,1.6-1.1c0.8-0.5,1.6-0.9,2.4-1.4
		l0,0c1.1-0.3,2.2-0.6,3.4-0.9c0,0.7,21.5,4.9,21.5,5.5c-3.1,13.7-5.9,27.4-9.2,40.9c-2.6,10.6-6.6,21-8.7,31.7
		c-4.6,23.5-43.5,31.8-62.3,42c-27.3,14.9-56.7,25.1-86.2,34.8c-2.5,0.8-5,1.8-7.3,3.1c-13,7.4-26.3,7.9-40.6,3.4
		c-5.8-1.8-12.5-0.8-18.8-0.9c-6.2-0.2-12.4,0.5-18.5-0.4c-8.2-1.2-12.6-7-16.1-14.4c-4.2-9-9.3-17.8-14.9-26
		c-6.1-9-13.2-17.3-20.1-25.7c-7.1-8.6-8.8-18.6-8.1-29.3C30.7,196.5,32.2,196,33,195.4z M182.2,231.1c-1.9,0.8-3.9,1.5-5.8,2.3
		c-0.4,0-0.7,0-1.1,0.1c-1.1,0.4-2.2,0.7-3.3,1.1c-10.8,0-21.6,0-33.4,0c1.2,2.1,1.9,3.3,2.6,4.5c-0.4,0.7-0.8,1.4-1.1,2.1
		c-1.3-0.5-2.9-0.8-3.8-1.7c-4-4.3-9-5.8-14.7-5.9c-7.9-0.1-15.8-0.2-23.7-0.2c-6.2,0-12.5-0.1-18.7,0.1c-1,0-2,1.1-3,1.7
		c1,0.9,1.9,2.5,2.9,2.5c13.2,0.4,26.4,0.3,39.6,1c4.4,0.2,9,1.8,13.1,3.6c3.8,1.6,7.1,4.2,10.6,6.3c-0.2,0.3-0.2,0.6-0.1,0.9
		c0,2.8,0,5.7,0.1,8.5c0.1,5.8,4,9.1,9.9,9.7c8.3,0.9,15-3.7,22-6.6c8.9-3.7,17.3-8,27.3-7.1c1.9,0.7,3.9,1.4,5.8,2.1
		c2.9,2.2,4.4,0.7,6.4-1.8c2.8-3.6,6.3-6.6,9.4-10c2.1-2.3,4.1-4.8,6.1-7.3c10.2-4.6,7.5-14,8.9-21.8c-3.5,0-6.3,0-9.1,0
		c-2.3,0.7-4.5,1.4-6.8,2.1c-1.6,0.8-3.1,1.6-4.7,2.4c-2.6,0.8-5.2,1.7-7.8,2.5c-1.6,0.3-3.3,0.5-4.9,1
		C197.2,225.8,189.7,228.5,182.2,231.1L182.2,231.1z M100.1,248C100.1,247.9,100.1,247.9,100.1,248c3.2,0,6.4,0.2,9.6-0.2
		c1.1-0.1,2-1.6,3-2.5c-1-0.6-2-1.8-3-1.9c-6.4-0.2-12.8-0.2-19.2,0c-1,0-2,1.2-2.9,1.9c1,0.9,1.9,2.4,2.9,2.5
		C93.7,248.2,96.9,248,100.1,248z"/>
	<path id="XMLID_12363_" class="st1" d="M182.2,290.7c-8.2,4.2-16.9,7.5-25.9,9.5c-1.2,0.3-2.2,0.5-2.9,0.6c-9.2,2-17.8,0-26.2-2.7
		c-6.7-2.1-12.8-1.8-19.5-0.6c-5.3,1-11.1,1.2-16.3,0.2c-10-1.9-17.2-7.6-21.4-17.4c-7.8-18.2-18.5-34.6-32.4-48.9
		c-9.8-10-12.5-22.5-11.2-36c1.1-0.7,1.4-0.9,2.5-1.6l4.2,1.5c-0.8,0.6-2.3,1.1-2.3,1.7c-0.8,10.7,0.9,20.7,8.1,29.3
		c6.9,8.4,14,16.7,20.1,25.7c5.6,8.2,10.7,17,14.9,26c3.5,7.4,7.9,13.2,16.1,14.4c6.1,0.9,12.3,0.3,18.5,0.4
		c6.3,0.2,13-0.9,18.8,0.9c13.9,4.4,26.9,4,39.7-2.9c2.2-1.2,5.9-2.8,8.2-3.6c29.5-9.8,58.9-19.9,86.2-34.8
		c18.7-10.2,56.9-23.7,61.5-47.1c2.1-10.7,6.1-21.1,8.7-31.7c3.4-13.6,6.2-27.3,9.2-40.9c0.3,1.7,0.5,3.5,0.9,5.5
		c0.9-0.7,1.8-1.4,2.6-2c-3.9,17.3-7.7,34.7-11.6,52c-1.7,7.5-3.4,15.1-5.6,22.5c-1.5,4.8-3.3,9.6-6.1,13.8
		c-12,18-50.8,30.4-69.7,39.1c-21.3,9.7-43.7,17-65.6,25.6C184.5,289.6,183.3,290.1,182.2,290.7z"/>
	<path id="XMLID_12362_" class="st2" d="M33,195.4c-0.8-0.3-1.5-0.6-2.3-0.8c0.5-0.5,1.5-1.4,1.3-1.6c-1.8-3.4-3.5-6.9-5.7-10.1
		c-6.2-8.7-4.9-22.2,3-29.1c0.6-0.6,1-1.5,1.5-2.2c0.2-0.3,0.5-0.4,0.8-0.2c0.8-0.8,1.6-1.6,2.4-2.4l-0.1,0.2c1.2-1.5,2.4-3,3.5-4.5
		c0.2,1.4,0.5,2.8,0.6,3.7c11.6,0,22.6,0,33.7,0c-2.5,0.6-4.9,1.2-6.5,1.6c3.5,3.2,6.9,6.4,8.8,8.1c0,6.2,0.3,11-0.1,15.7
		c-0.2,3-1.3,6-2.2,8.9c-0.6,2.2-1.5,4.3-2.3,6.4c-6.3,5.9-13.5,9.2-22.3,7.8c4-3.5,7.5-7.9,12.1-10.1c8.8-4.3,9-10.3,8.2-20.3
		c-0.5-6.1-5.7-8.2-9.4-11.7c-4.4-4.2-11-4.5-15.4-0.3c-1.8,1.7-3.2,4.4-5.3,5c-5.1,1.6-3.9,5.3-4.5,8.9c-1.2,7.8,2.3,12.9,8,17.3
		c1.3,1,2.3,2.2,3,2.8c-2.4,2.9-4.3,5.3-6.2,7.6C36.1,195.7,34.5,195.6,33,195.4z"/>
	<path id="XMLID_12361_" class="st3" d="M37.4,144.6c-1.2,1.5-2.4,3-3.5,4.5c-0.4-9.5,3.3-17.4,9.2-24.6c2.7-3.3,4.8-7.1,7.1-10.6
		c2.3,0.4,4.6,0.8,7,1.2c-4.8,1.7-7.2,5.3-8.5,10.3c2.8,0,5.2,0,7.6,0c9.2-0.2,16.4,3.8,21.7,11.1c1.3,1.9,1.4,4.7,2.1,7.1
		c-2.9,0.3-5.9,1.4-8.7,0.9c-7.6-1.4-15-3.4-22.5-5.2c-2.7-0.6-5.4-1.3-8.8-2.2C39.4,139.1,38.4,141.8,37.4,144.6z"/>
	<path id="XMLID_12360_" class="st1" d="M30.7,151.5c-0.5,0.8-0.8,1.7-1.5,2.2c-7.9,6.9-9.2,20.4-3,29.1c2.2,3.1,3.9,6.7,5.7,10.1
		c0.1,0.2-0.9,1.1-1.3,1.6c-1.4,0-2.9,0.1-4.3,0.1c-1.3-2-2.2-4.2-3.8-5.9c-5.8-6.2-8.9-13.6-8.8-22
		C13.9,157.5,17.6,154.4,30.7,151.5z"/>
	<path id="XMLID_12359_" class="st3" d="M34,148.8c-0.8,0.8-1.6,1.6-2.4,2.4C32.4,150.5,33.2,149.7,34,148.8z"/>
	<path id="XMLID_12354_" class="st4" d="M37.4,144.6c1-2.7,2-5.5,2.7-7.5c3.4,0.8,6.1,1.5,8.8,2.2c7.5,1.8,14.9,3.8,22.5,5.2
		c2.7,0.5,5.8-0.5,8.7-0.9c-0.7-2.4-0.8-5.2-2.1-7.1c-5.2-7.4-12.4-11.4-21.7-11.1c-2.4,0.1-4.9,0-7.6,0c1.3-4.9,3.7-8.6,8.5-10.3
		c0.4,0.1,0.7-0.1,0.9-0.4c0.9-0.6,1.8-1.2,2.7-1.8c0.4,0.1,0.6,0,0.8-0.3c0.4-0.3,0.8-0.6,1.2-0.9l0,0c1.9-1.1,3.9-2.3,5.8-3.4
		c6.4-3.9,12.8-7.8,19.3-11.7c1.7,7.9,3.1,9,10.8,6c6.5-2.5,12.6-5.9,19.7-9.3c3.4,4.3,7.7,2.2,11.3-0.8c6.6-5.4,14.4-7.1,22.2-9.5
		c5.8-1.7,11.5-3.9,17.1-5.9c7.7-2.8,10-1.7,12.5,5.9c2.1,6.5,5.6,9.3,12,6.7c18.4-7.5,29.3,2.5,39.6,15.1c2.1,2.6,4.2,5.4,6.7,7.6
		c4.3,3.7,8.2,2.2,9.7-3.2c0.4-1.5,0.6-3,0.8-4.5c0.2-1.5,0.2-2.9,0.2-4c4.1,0.2,7.8,0.1,11.4,0.8c2,0.3,4.1,1.5,5.5,2.9
		c8.5,8.2,16.8,16.7,28.8,19.7c3.1,0.9,6.1,1.8,9.2,2.8c0.3-0.2,0.7-0.4,1-0.6c0.8-1.5,1.6-3,2.4-4.4c0.2-0.9,0.3-1.8,0.8-4.3
		c3.3,2.8,6.1,5.1,8.8,7.5c-2.5,1.7-5,3.5-7.5,5.2c-0.4,0.2-0.9,0.4-1.3,0.6c-2.7,1.4-5.3,2.8-8,4.2c-2.8,1.5-5.6,3.1-8.5,4.6
		c-1.7,0.9-3.4,1.7-5,2.6c-1.4,0.7-2.8,1.3-4.2,2c-0.9,0.3-1.7,0.6-2.6,0.9c-1.3,0.5-2.7,1-4,1.4c-5.5-0.6-11.1-1.3-16.6-1.9
		c1.2-1.5,2.4-3,3.6-4.5c3.1-2.6,9.8,0.8,10.4-6.3c0.3-4.3,1-8.5,1.6-13.1c-5.3,1.2-9.2,2.1-13.2,3.1c-0.7-0.9-1.4-1.7-2.1-2.6
		c-3.5,3.6-7,7.1-10.4,10.7l0,0c-0.8,0.4-1.5,0.8-2.3,1.1l0,0c-2.3,1.1-4.5,2.3-6.8,3.4l0,0c-1.1,0-2.3,0-3.4,0l0,0
		c-0.8,0.8-1.6,1.5-2.4,2.3c-0.8,1.3-1.5,2.5-2.3,3.8c-1.5,0-3,0.1-4.4,0.1c-6.8-0.1-13.7-0.2-20.5-0.3c-4.6,0.4-9.1,0.7-13.7,1.1
		c-8.5,1.8-16.9,3.7-25.4,5.5c-2.8,0.7-5.6,1.5-8.4,2.2c-6.6,1.6-13.2,3.2-19.8,4.8l0,0c-1.9,0.1-3.8,0.2-5.7,0.3
		c-5.4-0.7-10.8-1.2-16.2-2.2c-8.7-1.5-17.3-3.3-25.9-5c-7.3-0.3-14.5-0.6-21.8-0.8c-11.1,0-22.1,0-33.7,0
		C37.9,147.3,37.6,146,37.4,144.6z M180.3,124.1c-10.2,0.8-17.8,4.7-23.1,12.7c-1.3,2-0.9,5.1-1.3,7.7c2.5,0.1,5,0.7,7.3,0.2
		c8.3-1.6,16.5-3.5,24.7-5.6c2-0.5,5-1.6,5.3-2.9c0.5-2.2-0.1-5.9-1.7-7C188.3,126.9,184.1,125.8,180.3,124.1z M159.4,121.1
		c-0.1-0.7-0.1-1.4-0.2-2.1c-26.4,1.4-52.8,2.7-79.3,4.1C106.7,128.3,133,122.9,159.4,121.1z M140,111.6c-13.9,0-26.8,0-40.4,0
		C103.8,117,132.8,116.7,140,111.6z"/>
	<path id="XMLID_12353_" class="st1" d="M311,130.2c2.5-1.7,5-3.5,7.5-5.2c0.2,1.9,0.3,3.9,0.5,5.8c-0.8,0.8-1.5,1.6-2.3,2.4l0,0
		c-0.8,0.5-1.6,0.9-2.4,1.4c-0.5,0.4-1.1,0.7-1.6,1.1c-1-0.1-1.9-0.2-2.9-0.2c-0.2-0.1-0.3-0.2-0.5-0.3c0.2,0.1,0.3,0.2,0.5,0.3
		c-0.4,0.8-0.7,1.6-1.1,2.4c-1.7,0.8-3.4,1.6-5,2.4c-0.6,0.4-1.1,0.7-1.7,1.1l0.1-0.1c-0.5,0.3-0.9,0.6-1.4,0.8l-0.1,0.1
		c-0.7-0.3-1.4-0.7-2.1-1l0,0c1.1-2.1,2.2-4.1,3.2-6.2c2.7-1.4,5.3-2.8,8-4.2C310.1,130.6,310.5,130.4,311,130.2z"/>
	<path id="XMLID_12352_" class="st5" d="M329.2,142.2c-1.2-2.4-2.5-4.8-4-7.6c-0.7,1.4-1.2,2.3-1.7,3.2c-0.2-1.4-0.3-2.8-0.5-4.6
		C328.8,134.2,330.7,137.1,329.2,142.2z"/>
	<path id="XMLID_12351_" class="st5" d="M305.4,126.8c-3.1-0.9-6.1-1.8-9.2-2.8C299.2,125,303.6,121.7,305.4,126.8z"/>
	<path id="XMLID_12350_" class="st5" d="M349.4,145.7c-0.7,1.9-1.3,3.8-2,5.7C348.6,149.7,343.9,145.9,349.4,145.7z"/>
	<path id="XMLID_12349_" class="st3" d="M68.5,108.2c-1.9,1.1-3.9,2.3-5.8,3.4C62.4,106.7,66,108.4,68.5,108.2z"/>
	<path id="XMLID_12348_" class="st1" d="M333.6,155.3c-0.7-2-1.3-4.1-2-6.1C332.2,151.2,332.9,153.2,333.6,155.3z"/>
	<path id="XMLID_12347_" class="st5" d="M344.6,157c-1,1-2,2-3,2.9C342,158.2,341.2,155.4,344.6,157z"/>
	<path id="XMLID_12346_" class="st1" d="M308.8,121.8c-0.8,1.5-1.6,3-2.4,4.4C307.2,124.7,308,123.3,308.8,121.8z"/>
	<path id="XMLID_12345_" class="st5" d="M316.7,133.2c0.8-0.8,1.5-1.6,2.3-2.4c0.4,0.5,0.7,1,1.1,1.5
		C319,132.6,317.8,132.9,316.7,133.2z"/>
	<path id="XMLID_12344_" class="st1" d="M339.8,160.7c-1.4-0.2-2.8-0.3-4.3-0.5C337,160.3,338.4,160.5,339.8,160.7z"/>
	<path id="XMLID_12343_" class="st1" d="M346.5,153.7c-0.5,0.9-1,1.8-1.5,2.8C345.5,155.5,346,154.6,346.5,153.7z"/>
	<path id="XMLID_12342_" class="st1" d="M331.4,148.3c-0.4-1.2-0.8-2.4-1.3-3.6C330.5,145.9,330.9,147.1,331.4,148.3z"/>
	<path id="XMLID_12341_" class="st3" d="M60.7,112.8c-0.9,0.6-1.8,1.2-2.7,1.8C58.9,114,59.8,113.4,60.7,112.8z"/>
	<path id="XMLID_12340_" class="st1" d="M335.2,159.8c-0.2-0.5-0.4-0.9-0.5-1.4C334.8,158.8,335,159.3,335.2,159.8z"/>
	<path id="XMLID_12339_" class="st3" d="M62.7,111.6c-0.4,0.3-0.8,0.6-1.2,0.9C61.9,112.2,62.3,111.9,62.7,111.6z"/>
	<path id="XMLID_12338_" class="st1" d="M330.1,144.8c-0.2-0.5-0.4-0.9-0.6-1.4C329.7,143.9,329.9,144.3,330.1,144.8z"/>
	<path id="XMLID_12333_" class="st6" d="M47.2,196.7c-3.2-0.3-6.4-0.6-9.5-0.8c1.9-2.4,3.8-4.7,6.2-7.6c-0.7-0.6-1.7-1.8-3-2.8
		c-5.7-4.4-9.2-9.6-8-17.3c0.6-3.6-0.6-7.4,4.5-8.9c2.1-0.6,3.5-3.3,5.3-5c4.4-4.2,11-3.9,15.4,0.3c3.7,3.5,8.9,5.6,9.4,11.7
		c0.8,10,0.6,16.1-8.2,20.3C54.7,188.8,51.2,193.3,47.2,196.7z M51.3,183.4c7.3,0,13.6-5.8,13.6-12.7c0-7.5-6.2-13.6-13.7-13.5
		c-7.3,0.1-13.6,6.1-13.6,13C37.5,177.4,43.7,183.4,51.3,183.4z"/>
	<path id="XMLID_12331_" class="st1" d="M229,142.7c1.5,0,3-0.1,4.4-0.1c7.2,0.6,14.3,1.2,21.5,1.8c2,0.1,3.9,0.2,5.9,0.3
		c5.5,0.6,11.1,1.3,16.6,1.9c1.3-0.5,2.7-1,4-1.4c0.9-0.3,1.7-0.6,2.6-0.9c1.4-0.7,2.8-1.3,4.2-2c1.7-0.9,3.4-1.7,5-2.6
		c1.7,0.5,3.5,1,5.2,1.5l0,0c-0.3,0.9-0.6,1.8-1,2.7c-0.4,0.3-0.8,0.5-1.2,0.8c-0.8,0.4-1.6,0.9-2.4,1.3c-0.6,0.4-1.3,0.7-1.9,1.1
		c-0.9,0.5-1.8,0.9-2.6,1.4c-0.7,0.3-1.5,0.5-2.2,0.8c-3-2-4.6-0.5-5.7,2.2c-0.5,1.6-0.9,3.1-1.4,4.7c-0.6,1.6-1.2,3.2-1.7,4.8
		l0.1-0.1c-0.5,0.7-1,1.4-1.5,2.1l0,0c-0.4,0.4-0.8,0.9-1.1,1.3c-8.5,24.8-25.4,39.9-51.5,44.3c-1.9,0.3-3.7,0.5-5.6,0.7
		c-4.8-0.3-9.6-0.4-14.4-0.9c-1.7-0.2-3.3-1.4-4.9-2.2c1.1,0,2.3,0,3.4,0c4.5,0,9.1,0.1,13.6-0.1c1.6-0.1,4.4-0.5,4.6-1.4
		c1.3-4.6,7.9-6.8,5.8-12.8c-0.2-0.6-0.1-1.8,0.4-2.2c6.5-5.6,3.8-13.1,4.1-20c0.3-6.8,0.8-13.6-6-18c-0.3-0.2-0.3-1,0,0
		C226.8,147.9,227.9,145.3,229,142.7z"/>
	<path id="XMLID_12329_" class="st7" d="M201.5,254c-10-0.9-18.4,3.4-27.3,7.1c-6.9,2.9-13.6,7.5-22,6.6c-5.9-0.6-9.8-3.9-9.9-9.7
		c0-2.8,0-5.7-0.1-8.5c2.5,0,5.1,0,7.8,0c0,1.7-0.2,2.7,0,3.5c0.3,1.4,0.8,2.7,1.3,4.1c1-1.1,2.3-2.1,2.9-3.3
		c0.7-1.6,0.9-3.5,1.2-4.6c3.2-1.2,5.8-2.2,8.4-3.1c2.2,0.5,4.4,0.9,6.5,1.4c0.2,0.8,0.3,1.4,0.5,1.9c0.8,1.5,1.7,2.9,2.6,4.4
		c0.7-1.5,1.3-3,2-4.5c0.7-1.4,1.1-3.6,2.2-4c5.3-1.8,10.7-3.1,16.2-4.6c2.1,2.5-1.3,8.8,5.5,7.7C200.1,250.2,200.8,252.1,201.5,254
		z"/>
	<path id="XMLID_12328_" class="st8" d="M199.3,248.3c-6.8,1.1-3.4-5.2-5.5-7.7c-5.4,1.5-10.9,2.8-16.2,4.6c-1.1,0.4-1.5,2.6-2.2,4
		c-0.7,1.5-1.4,3-2,4.5c-0.9-1.5-1.7-2.9-2.6-4.4c-0.3-0.5-0.3-1.1-0.5-1.9c-2.1-0.4-4.3-0.9-6.5-1.4c0.1-1.2,0.2-2.3,0.2-3.5
		c5,0.4,7.6-1.7,7-6.9c0.3-0.4,0.6-0.7,0.9-1.1c1.1-0.4,2.2-0.7,3.3-1.1c0.1,2,0.3,4.1,0.5,7.6c6.3-2.2,12.1-4.2,17.7-6.2
		c0.5-0.2,0.7-1.3,1.1-1.9c0.8-1.3,1.7-2.6,2.6-3.8c1.1,1.2,2.2,2.5,3.7,4.2c1.6-1,3.5-2.1,5.3-3.2c7.8,0.2,2.7-5.1,3.4-7.9
		c2.6-0.8,5.2-1.7,7.8-2.5c0.1,4.6,0,9.3,0.3,13.9c0.1,1.1,1.7,2,2.6,3c0.6-1,1.8-2.1,1.6-3.1c-0.6-5.3,2.2-8,6.9-9.3
		c0.1,4.3,0.2,8.5,0.3,12.8c-2,2.4-4,4.9-6.1,7.3c-3.1,3.4-6.6,6.4-9.4,10c-1.9,2.5-3.4,4-6.4,1.8c1.1-5.9,2.2-11.8,3.1-17.8
		c0.1-0.7-1.3-2.3-2.2-2.4c-4.8-0.7-8.9,3.1-9,7.8C199.3,245.3,199.3,246.8,199.3,248.3z"/>
	<path id="XMLID_12325_" class="st1" d="M96.8,171.7c1.7-5,6.2-3.7,9.8-4.5c-0.1,1.8-0.3,3.5-0.4,5.3c-0.5-0.8-0.9-1.6-1.4-2.5
		c-0.5,0.3-0.9,0.5-1.4,0.8c0.7,1.1,1.5,2.2,2.2,3.3c-1.6,2.5-3.3,5-4.9,7.4c-1,1.6-2.1,3.1-3.1,4.7c-2.3,3.9-4.2,8.6-0.7,12
		c3.4,3.2,8.4,4.6,13.3,2.1c3.4-4.7,8.5-3,13-3.5c0.4,0.8,0.8,1.6,1.2,2.4c-0.5,0.5-0.9,1-1.4,1.5c-1.4,0.4-2.8,0.9-4.2,1.3
		c0.4,0.4,0.9,0.7,1.3,1.1c-0.9,1-1.8,3-2.6,3c-6.8-0.2-13.7-0.3-20.3-1.5c-5.7-1.1-8.5-9.7-5.6-16.3c2.4-5.4,5.6-10.5,8.6-16.1
		C99.1,172,98,171.9,96.8,171.7z"/>
	<path id="XMLID_12324_" class="st1" d="M142.4,248.6c-3.5-2.1-6.8-4.7-10.6-6.3c-4.2-1.7-8.7-3.3-13.1-3.6
		c-13.2-0.7-26.4-0.6-39.6-1c-1,0-2-1.6-2.9-2.5c1-0.6,2-1.7,3-1.7c6.2-0.2,12.5-0.1,18.7-0.1c7.9,0,15.8,0.1,23.7,0.2
		c5.6,0.1,10.6,1.6,14.7,5.9c0.9,0.9,2.5,1.1,3.8,1.7c0.7,0.8,1.4,1.7,2.2,2.5C142.3,245.4,142.3,247,142.4,248.6z"/>
	<path id="XMLID_12323_" class="st7" d="M142.3,243.7c-0.7-0.8-1.4-1.7-2.2-2.5c0.4-0.7,0.8-1.4,1.1-2.1c2.1-1.1,4.1-3.2,6.2-3.3
		c7.9-0.4,15.8-0.1,23.7-0.1c0.6,5.2-2,7.3-7,6.9c-2.7,0.4-5.5,0.7-7.4,1c-1.6-2.2-2.8-3.9-4-5.5c-1.2,2-2.4,4-3.9,6.5
		C147,244.3,144.6,244,142.3,243.7z"/>
	<path id="XMLID_12322_" class="st7" d="M206.3,230.1c-1.8,1.1-3.7,2.2-5.3,3.2c-1.5-1.7-2.6-3-3.7-4.2c-0.9,1.3-1.7,2.5-2.6,3.8
		c-0.4,0.6-0.5,1.7-1.1,1.9c-5.7,2.1-11.4,4-17.7,6.2c-0.2-3.5-0.4-5.5-0.5-7.6c0.4-0.1,0.7-0.1,1.1-0.1c1.9-0.8,3.9-1.5,5.8-2.3
		l0,0c3.8-1.2,7.8-2.1,11.5-3.5C199.6,225.3,204.9,226.2,206.3,230.1z"/>
	<path id="XMLID_12321_" class="st9" d="M199.3,248.3c0-1.5,0-3,0-4.5c0-4.7,4.2-8.5,9-7.8c0.9,0.1,2.3,1.7,2.2,2.4
		c-0.9,5.9-2,11.9-3.1,17.8c-1.9-0.7-3.9-1.4-5.8-2.1C200.8,252.1,200.1,250.2,199.3,248.3z"/>
	<path id="XMLID_12320_" class="st9" d="M142.3,243.7c2.4,0.3,4.7,0.6,6.5,0.8c1.5-2.5,2.7-4.5,3.9-6.5c1.2,1.6,2.4,3.3,4,5.5
		c2-0.3,4.7-0.6,7.4-1c-0.1,1.2-0.2,2.3-0.2,3.5c-2.6,1-5.2,1.9-8.4,3.1c-0.3,1.1-0.4,3-1.2,4.6c-0.6,1.3-1.9,2.2-2.9,3.3
		c-0.4-1.4-1-2.7-1.3-4.1c-0.2-0.9,0-1.8,0-3.5c-2.7,0-5.2,0-7.8,0c-0.1-0.3-0.1-0.6,0.1-0.9C142.3,247,142.3,245.4,142.3,243.7z"/>
	<path id="XMLID_12319_" class="st1" d="M100.1,248c-3.2,0-6.4,0.2-9.6-0.1c-1.1-0.1-2-1.6-2.9-2.5c1-0.7,1.9-1.9,2.9-1.9
		c6.4-0.2,12.8-0.2,19.2,0c1,0,2,1.2,3,1.9c-1,0.9-1.9,2.4-3,2.5C106.5,248.1,103.3,247.9,100.1,248
		C100.1,247.9,100.1,247.9,100.1,248z"/>
	<path id="XMLID_12318_" class="st9" d="M229.2,237c-0.1-4.3-0.2-8.5-0.3-12.8c0.4-0.3,0.8-0.7,1.1-1c2.1-1.7,4.1-3.3,7-5.6
		c-3.8-1.1-5.9-1.7-8-2.3c2.8,0,5.6,0,9.1,0C236.7,223,239.4,232.4,229.2,237z"/>
	<path id="XMLID_12317_" class="st10" d="M230,223.1c-0.4,0.3-0.8,0.7-1.1,1c-4.7,1.4-7.5,4-6.9,9.3c0.1,1-1.1,2-1.6,3.1
		c-0.9-1-2.5-2-2.6-3c-0.4-4.6-0.3-9.3-0.3-13.9c1.6-0.8,3.1-1.6,4.7-2.4c0.2,1.1,0.4,2.2,0.7,3.6c2.8-1.2,5-2.1,7.5-3.1
		C230.2,219.9,230.1,221.5,230,223.1z"/>
	<path id="XMLID_12316_" class="st9" d="M206.3,230.1c-1.4-3.9-6.7-4.8-12.5-2.5c-3.7,1.5-7.7,2.4-11.5,3.5c7.5-2.7,15-5.4,22.5-7.9
		c1.6-0.5,3.3-0.7,4.9-1C209,225,214.1,230.3,206.3,230.1z"/>
	<path id="XMLID_12315_" class="st1" d="M184.5,208.3c0.3-3.8,1.6-4.8,5.5-3.3c2.8,1.1,6.2,0.8,9.3,1.1c1.6,0.8,3.2,2,4.9,2.2
		c4.8,0.5,9.6,0.6,14.4,0.9C207.3,208.9,195.9,208.6,184.5,208.3z"/>
	<path id="XMLID_12314_" class="st8" d="M230,223.1c0.1-1.6,0.2-3.2,0.3-5.4c-2.4,1-4.7,2-7.5,3.1c-0.3-1.4-0.5-2.5-0.7-3.6
		c2.3-0.7,4.5-1.4,6.8-2.1c2.1,0.6,4.2,1.2,8,2.3C234.2,219.8,232.1,221.5,230,223.1z"/>
	<path id="XMLID_12313_" class="st9" d="M171.1,235.7c-7.9,0-15.8-0.2-23.7,0.1c-2.1,0.1-4.1,2.1-6.2,3.3c-0.7-1.2-1.4-2.4-2.6-4.5
		c11.8,0,22.6,0,33.4,0C171.7,235,171.4,235.3,171.1,235.7z"/>
	<path id="XMLID_12312_" class="st1" d="M123.3,196.8c-4.5,0.5-9.6-1.2-13,3.5c-0.3-3.2,0.7-5,4.2-4.5
		C117.5,196.2,120.4,196.5,123.3,196.8z"/>
	<path id="XMLID_12311_" class="st5" d="M281.4,151.3c1.2-2.7,2.7-4.2,5.7-2.2C285.2,149.9,283.3,150.6,281.4,151.3z"/>
	<path id="XMLID_12310_" class="st11" d="M105.7,174.2c-0.7-1.1-1.5-2.2-2.2-3.3c0.5-0.3,0.9-0.5,1.4-0.8c0.5,0.8,0.9,1.6,1.4,2.5
		C106.1,173.1,105.9,173.6,105.7,174.2z"/>
	<path id="XMLID_12309_" class="st3" d="M160.5,197c1.9,0,3.9,0,6.3,0c-0.7,1.1-1.2,1.8-1.7,2.5C163.5,198.6,162,197.8,160.5,197z"
		/>
	<path id="XMLID_12308_" class="st9" d="M182.2,231.1c-1.9,0.8-3.9,1.5-5.8,2.3C178.4,232.7,180.3,231.9,182.2,231.1z"/>
	<path id="XMLID_12307_" class="st1" d="M107,166.9c1.5,0,3.1,0,4.6,0C110,166.9,108.5,166.9,107,166.9z"/>
	<path id="XMLID_12306_" class="st1" d="M278.3,160.8c0.6-1.6,1.2-3.2,1.7-4.8C279.4,157.6,278.8,159.2,278.3,160.8z"/>
	<path id="XMLID_12305_" class="st1" d="M93.7,173.8c0.2-0.8,0.4-1.6,0.6-2.4c0.5,0.3,1.1,0.6,1.6,0.9
		C95.1,172.8,94.4,173.3,93.7,173.8z"/>
	<path id="XMLID_12304_" class="st5" d="M297.5,143.8c0.3-0.9,0.6-1.8,1-2.7c0.7,0.3,1.4,0.7,2.1,1
		C299.6,142.7,298.5,143.3,297.5,143.8z"/>
	<path id="XMLID_12303_" class="st5" d="M308.8,137.8c0.4-0.8,0.7-1.6,1.1-2.4l0,0c1,0.1,1.9,0.2,2.9,0.2
		C311.4,136.4,310.1,137.1,308.8,137.8z"/>
	<path id="XMLID_12302_" class="st1" d="M90,174.2c0.7,0,1.4,0,2,0c-0.7,0.7-1.4,1.4-2.1,2.1C90,175.6,90,174.9,90,174.2z"/>
	<path id="XMLID_12301_" class="st1" d="M289.3,148.3c0.9-0.5,1.8-0.9,2.6-1.4C291.1,147.4,290.2,147.9,289.3,148.3z"/>
	<path id="XMLID_12300_" class="st1" d="M293.9,145.9c0.8-0.4,1.6-0.9,2.4-1.3C295.5,145,294.7,145.5,293.9,145.9z"/>
	<path id="XMLID_12299_" class="st1" d="M314.4,134.6c0.8-0.5,1.6-0.9,2.4-1.4C315.9,133.7,315.1,134.1,314.4,134.6z"/>
	<path id="XMLID_12298_" class="st1" d="M123.1,200.7c0.5-0.5,0.9-1,1.4-1.5C124.1,199.7,123.6,200.2,123.1,200.7z"/>
	<path id="XMLID_12297_" class="st1" d="M276.8,162.8c0.5-0.7,1-1.4,1.5-2.1C277.8,161.4,277.3,162.1,276.8,162.8z"/>
	<path id="XMLID_12296_" class="st1" d="M275.7,164.1c0.4-0.4,0.8-0.9,1.1-1.3C276.5,163.3,276.1,163.7,275.7,164.1z"/>
	<path id="XMLID_12295_" class="st3" d="M166.3,200.2c0.4,0.2,0.7,0.4,1.1,0.6C167.1,200.6,166.7,200.4,166.3,200.2z"/>
	<path id="XMLID_12294_" class="st1" d="M300.7,142.1c0.5-0.3,0.9-0.6,1.4-0.8C301.6,141.6,301.2,141.9,300.7,142.1z"/>
	<path id="XMLID_12293_" class="st1" d="M302,141.3c0.6-0.4,1.1-0.7,1.7-1.1C303.1,140.6,302.6,141,302,141.3z"/>
	<path id="XMLID_12292_" class="st3" d="M169.1,201.7c0.6,0.4,1.2,0.8,1.8,1.2C170.3,202.5,169.7,202.1,169.1,201.7z"/>
	<path id="XMLID_12291_" class="st2" d="M194.8,143.5c2.3,2.2,4.2,5.3,6.9,6.5c10.9,4.7,14,14.6,15.7,24.6c1.5,9.5-6.6,14.4-12.5,20
		c-4.8,4.5-10.5,6.2-17,3.6c0-0.4,0-0.8,0.1-1.2c3-2.2,5.6-5.7,8.9-6.5c4.8-1.1,7.8-4.4,9.1-7.8c1.9-4.8,1.6-10.5,2.5-15.7
		c0.8-4.7-1.8-7.6-4.9-10c-6.5-5-14.3-4.3-21.1-2.5c-4.1,1.1-9,6.2-9.9,10.4c-1.6,7.1-0.4,14.9-0.4,22.4c5.3,0.5,8.7,2.2,9,7.4
		c-1.5,1.2-3,2.4-4.5,3.5c-1-2.5-2.1-5-2.9-7.1c-2.4,0.5-4.3,0.9-6.2,1.3l0,0c0-4.3-0.1-8.1-3.1-12.1c-1.8-2.4-1.8-7.3-0.7-10.4
		c2.3-7,5.8-13.5,8.9-20.4c-0.4-0.1-1.8-0.3-3.2-0.5C177.9,147.2,186.3,145.3,194.8,143.5z"/>
	<path id="XMLID_12289_" class="st3" d="M180.3,124.1c3.8,1.7,8,2.8,11.3,5.2c1.5,1.1,2.1,4.8,1.7,7c-0.3,1.3-3.3,2.4-5.3,2.9
		c-8.2,2-16.4,3.9-24.7,5.6c-2.3,0.5-4.9-0.1-7.3-0.2c0.4-2.6,0-5.7,1.3-7.7C162.4,128.9,170.1,125,180.3,124.1z"/>
	<path id="XMLID_12288_" class="st1" d="M159.4,121.1c-26.4,1.7-52.8,7.1-79.5,2c26.4-1.4,52.8-2.7,79.3-4.1
		C159.3,119.7,159.4,120.4,159.4,121.1z"/>
	<path id="XMLID_12286_" class="st8" d="M263.1,123.9c3.9-0.9,7.9-1.8,13.2-3.1c-0.6,4.6-1.3,8.8-1.6,13.1
		c-0.5,7.1-7.2,3.7-10.4,6.3c-0.3-2.7-0.8-5.4-1-8.1C263.1,129.3,263.2,126.6,263.1,123.9z"/>
	<path id="XMLID_12285_" class="st7" d="M254.9,144.4c-7.2-0.6-14.3-1.2-21.5-1.8c0.8-1.3,1.5-2.5,2.3-3.8c0.8-0.8,1.6-1.5,2.4-2.3
		l0,0c1.1,0,2.3,0,3.4,0l0,0c3.1,3.3,4.7,2.4,6.8-3.4l0,0c0.8-0.4,1.5-0.8,2.3-1.1l0,0c2.2,0.7,5,0.7,6.6,2.2
		c2.5,2.3,0.2,4.1-1.6,5.9C254.7,140.9,255.1,142.9,254.9,144.4z"/>
	<path id="XMLID_12284_" class="st9" d="M254.9,144.4c0.2-1.5-0.2-3.5,0.6-4.3c1.9-1.8,4.1-3.6,1.6-5.9c-1.5-1.4-4.3-1.5-6.6-2.2
		c3.5-3.6,7-7.1,10.4-10.7c0.7,0.9,1.4,1.7,2.1,2.6c0.1,2.7,0,5.5,0.2,8.2c0.2,2.7,0.7,5.4,1,8.1c-1.2,1.5-2.4,3-3.6,4.5
		C258.8,144.6,256.9,144.5,254.9,144.4z"/>
	<path id="XMLID_12283_" class="st2" d="M140,111.6c-7.1,5.1-36.2,5.4-40.4,0C113.2,111.6,126.1,111.6,140,111.6z"/>
	<path id="XMLID_12282_" class="st5" d="M298.5,141.1c-1.7-0.5-3.5-1-5.2-1.5c2.8-1.5,5.6-3.1,8.5-4.6
		C300.6,137,299.5,139.1,298.5,141.1z"/>
	<path id="XMLID_12281_" class="st9" d="M248.3,133.2c-2.1,5.8-3.8,6.7-6.8,3.4C243.8,135.4,246,134.3,248.3,133.2z"/>
	<path id="XMLID_12280_" class="st1" d="M141.2,155.9c-1.7,3.7-3.6,3.5-5.7,0.3C137.4,156.1,139.3,156,141.2,155.9z"/>
	<path id="XMLID_12279_" class="st1" d="M288.2,142.2c-1.4,0.7-2.8,1.3-4.2,2C285.4,143.6,286.8,142.9,288.2,142.2z"/>
	<path id="XMLID_12278_" class="st1" d="M281.4,145.2c-1.3,0.5-2.7,1-4,1.4C278.7,146.1,280.1,145.7,281.4,145.2z"/>
	<path id="XMLID_12277_" class="st9" d="M238.1,136.6c-0.8,0.8-1.6,1.5-2.4,2.3C236.5,138.1,237.3,137.3,238.1,136.6z"/>
	<path id="XMLID_12276_" class="st9" d="M241.5,136.6c-1.1,0-2.3,0-3.4,0C239.2,136.6,240.4,136.6,241.5,136.6z"/>
	<path id="XMLID_12275_" class="st9" d="M250.6,132c-0.8,0.4-1.5,0.8-2.3,1.1C249.1,132.8,249.8,132.4,250.6,132z"/>
	<path id="XMLID_12274_" class="st1" d="M311,130.2c-0.4,0.2-0.9,0.4-1.3,0.6C310.1,130.6,310.5,130.4,311,130.2z"/>
	<path id="XMLID_12273_" class="st1" d="M309.9,135.4c-0.2-0.1-0.3-0.2-0.5-0.3C309.5,135.3,309.7,135.4,309.9,135.4L309.9,135.4z"
		/>
	<path id="XMLID_12272_" class="st12" d="M51.3,183.4c-7.6,0-13.7-6-13.7-13.3c0-6.9,6.3-12.9,13.6-13c7.5-0.1,13.7,6,13.7,13.5
		C64.8,177.6,58.6,183.5,51.3,183.4z"/>
	<path id="XMLID_12271_" class="st13" d="M149.2,181c-2,0-4,0-6.1,0c0-0.6,0.1-1.1,0.1-1.7C145.3,179.1,147.6,177.1,149.2,181
		L149.2,181z"/>
	<path id="XMLID_85_" class="st1" d="M165.1,199.6c0.4,0.3,0.8,0.4,1.3,0.7c0.4,0.2,0.7,0.3,1.1,0.5c0.5,0.3,1.1,0.6,1.6,0.9
		c0.6,0.4,1.2,0.8,1.8,1.1c0.1,0.4,0.4,0.6,0.9,0.6 M171.8,203.5c4.3,1.6,8.5,3.2,12.8,4.9c0.3-3.8,1.6-4.8,5.5-3.3
		c2.8,1.1,6.2,0.8,9.3,1.1c1.1,0,2.3,0,3.4,0c4.5,0,9.1,0.1,13.6-0.1c1.6-0.1,4.4-0.5,4.6-1.4c1.3-4.6,7.9-6.8,5.8-12.8
		c-0.2-0.6-0.1-1.8,0.4-2.2c6.5-5.6,3.8-13.1,4.1-20c0.3-6.8,0.8-13.6-6-18c0,0,0,0,0,0c1.6-3.8,2.7-6.3,3.8-8.9
		c-6.8-0.1-13.7-0.2-20.5-0.3c-4.6,0.4-9.1,0.7-13.7,1.1c2.3,2.2,4.2,5.3,6.9,6.5c10.9,4.7,14,14.6,15.7,24.6
		c1.5,9.5-6.6,14.4-12.5,20c-4.8,4.5-10.5,6.2-17,3.6l0,0c0-0.4,0-0.8,0.1-1.2c-2.3-0.8-4.5-1.5-6.8-2.3c-1.5,1.2-3,2.4-4.5,3.5
		c-0.7,0.4-1.4,0.8-2.1,1.1c-2.3-2.3-4.7-4.6-7-6.9l0,0l0,0c0-4.3-0.1-8.1-3.1-12.1c-1.8-2.4-1.8-7.3-0.7-10.4
		c2.3-7,5.8-13.5,8.9-20.4c-0.4-0.1-1.8-0.3-3.2-0.5c-2.8,0.7-5.5,1.5-8.4,2.2c-6.6,1.6-12.7,3.2-19.7,4.8c0,0,0,0,0,0l-0.1,0
		c0,0,0,0,0,0c-1.7,3.7-3.6,3.4-5.7,0.3c-5.4-0.7-10.8-1.2-16.2-2.2c-8.7-1.5-17.3-3.3-25.9-5c-7.3-0.3-14.5-0.6-21.8-0.8
		c-2.5,0.6-4.9,1.2-6.5,1.6c3.5,3.2,6.9,6.4,8.8,8.1c0,6.2,0.3,11-0.1,15.7c-0.2,3-1.3,6-2.2,8.9c-0.6,2.2-1.5,4.3-2.3,6.4
		c6.8-4.2,13.7-8.5,20.5-12.7c0-0.7,0-1.4,0-2.1c0.7,0,1.4,0,2,0c0.6-0.1,1.1-0.2,1.7-0.4c0.2-0.8,0.4-1.6,0.6-2.4
		c0.5,0.3,1.1,0.6,1.6,0.9c0.3-0.2,0.6-0.4,0.9-0.6c1.7-5,6.2-3.7,9.8-4.5l0.3,0l0-0.3c1.5,0,3.1,0,4.6,0c4.4,1.4,9.6,1.9,13.2,4.5
		c6.9,4.9,13.6,11,19.6,16.6v0.2c6,3,10.8,6.1,16.2,9.1 M225.2,151.6C224.9,151.4,224.9,150.7,225.2,151.6L225.2,151.6z"/>
	<path id="XMLID_12269_" class="st3" d="M176.6,198.2c-0.7,0.4-1.4,0.8-2.1,1.1c-2.3-2.3-4.7-4.6-7-6.9c1.9-0.4,3.9-0.8,6.2-1.3
		C174.5,193.2,175.5,195.7,176.6,198.2z"/>
	<path id="XMLID_12266_" class="st6" d="M187.9,196.9c-2.3-0.8-4.5-1.5-6.8-2.3c-0.3-5.2-3.7-6.9-9-7.4c0-7.5-1.2-15.3,0.4-22.4
		c0.9-4.1,5.8-9.3,9.9-10.4c6.8-1.8,14.7-2.6,21.1,2.5c3.2,2.5,5.7,5.4,4.9,10c-0.9,5.2-0.6,10.9-2.5,15.7c-1.4,3.4-4.3,6.7-9.1,7.8
		C193.6,191.2,190.9,194.7,187.9,196.9z M191,160.4c-8.4,0-11.9,3.9-12.5,12.4c-0.6,9,6.5,13.1,12.8,13.5
		c6.5,0.5,12.6-6.8,12.6-14.1C204,165.7,198.2,160.4,191,160.4z"/>
	<path id="XMLID_12265_" class="st12" d="M191,160.4c7.2,0,13,5.3,13,11.8c0,7.4-6.2,14.6-12.6,14.1c-6.3-0.5-13.4-4.5-12.8-13.5
		C179.1,164.3,182.5,160.3,191,160.4z"/>
	<path id="XMLID_12264_" class="st5" d="M50.2,113.8c0.3-2.4,0.7-4.9,0.9-7.3c0.7-7.5,1.3-8.7,10.7-17.8c-1.6,0-2.7,0.2-3.6,0
		c-1.5-0.4-3.8-0.7-4.2-1.8c-0.5-1.2,0.2-3.5,1.2-4.5c7.4-8,14.5-16.5,22.8-23.5c7.9-6.7,16.7-12.6,25.7-17.6
		c5.7-3.2,12.6-5.1,19.1-5.9c7.9-0.9,14.5-3.8,20.8-8.1c19.6-13.3,41.2-17.2,64.3-12.5c5,1,10.3,3.2,14.4,6.2
		c4.6,3.4,9.5,4.1,14.8,4.8c6.9,0.9,13.7,2.5,20.6,3.6c9.5,1.6,19,2.7,28.4,4.7c4.9,1,9.6,3.3,14.3,5.2c5.9,2.3,12.1,4.3,17.6,7.4
		c4.8,2.7,9.7,6.1,13,10.4c3.6,4.7,5.3,10.7,7.9,16.2c1.6,3.4,3.1,6.9,5,10.1c5.3,9.1,6.5,19.2,7,29.4c0.2,4.7-0.5,9.5-0.1,14.2
		c0.3,3.6,1.7,7.1,2.6,10.7c-1.2,1.9-2.3,3.8-3.5,5.7c-0.1,0.8-0.2,1.6-0.3,2.3c-5.5,0.2-0.8,4-2,5.7c-0.3,0.8-0.7,1.5-1,2.3
		c-0.5,0.9-1,1.8-1.5,2.8c0,0.2-0.1,0.4-0.3,0.5c-3.5-1.6-2.6,1.3-3,2.9c-0.6,0.3-1.3,0.5-1.9,0.8c-1.4-0.2-2.8-0.3-4.3-0.5
		l-0.4-0.4c-0.2-0.5-0.4-0.9-0.5-1.4c-0.4-1-0.7-2.1-1.1-3.1c-0.7-2-1.3-4.1-2-6.1c-0.3-0.2-0.4-0.5-0.2-0.8
		c-0.4-1.2-0.8-2.4-1.3-3.6l0,0.1c-0.2-0.5-0.4-0.9-0.6-1.4c-0.1-0.4-0.2-0.8-0.2-1.2c1.5-5.1-0.4-8-6.2-9.1
		c0.2,1.8,0.3,3.2,0.5,4.6l0,0c-0.8,0.6-1.7,1.3-2.6,2c-0.3-2-0.6-3.7-0.9-5.5c0-0.7,0-1.3,0-2c-0.4-0.5-0.7-1-1.1-1.5
		c-0.2-1.9-0.3-3.9-0.5-5.8c-2.7-2.3-5.5-4.6-8.8-7.5c-0.5,2.5-0.6,3.4-0.8,4.3c-0.8,1.5-1.6,3-2.4,4.4c-0.3,0.2-0.7,0.4-1,0.6
		c-1.8-5.1-6.1-1.8-9.2-2.8c-12-3-20.3-11.6-28.8-19.7c-1.5-1.4-3.6-2.6-5.5-2.9c-3.6-0.6-7.3-0.5-11.4-0.8c-0.1,1-0.1,2.5-0.2,4
		c-0.2,1.5-0.4,3-0.8,4.5c-1.5,5.5-5.4,6.9-9.7,3.2c-2.5-2.2-4.6-5-6.7-7.6c-10.3-12.7-21.3-22.6-39.6-15.1c-6.5,2.6-9.9-0.2-12-6.7
		c-2.5-7.6-4.8-8.7-12.5-5.9c-5.7,2.1-11.3,4.2-17.1,5.9c-7.8,2.3-15.7,4.1-22.2,9.5c-3.6,2.9-7.9,5-11.3,0.8
		c-7.1,3.4-13.2,6.8-19.7,9.3c-7.7,2.9-9.1,1.8-10.8-6c-6.5,3.9-12.9,7.8-19.3,11.7c-2.5,0.3-6.1-1.5-5.8,3.4l0,0
		c-0.4,0.3-0.8,0.6-1.2,0.9c-0.2,0.3-0.4,0.5-0.8,0.3c-0.9,0.6-1.8,1.2-2.7,1.8c-0.2,0.4-0.5,0.5-0.9,0.4
		C54.8,114.6,52.5,114.2,50.2,113.8z"/>
</g>
</svg>
